<svg width="172" height="45" viewBox="0 0 172 45" fill="none" xmlns="http://www.w3.org/2000/svg">
<rect x="82" width="90" height="45" rx="5" fill="#FFA31A"/>
<path d="M0.352 36L8.576 12.16H14.208L22.432 36H17.696L16 30.88H6.784L5.056 36H0.352ZM8.032 27.04H14.752L10.784 15.168H12L8.032 27.04ZM37.5163 42.4V32.64L38.1883 33.472C37.5909 34.4107 36.7589 35.136 35.6923 35.648C34.6256 36.1387 33.4629 36.384 32.2043 36.384C30.5189 36.384 29.0149 35.9893 27.6923 35.2C26.3696 34.3893 25.3243 33.2907 24.5563 31.904C23.7883 30.5173 23.4043 28.9813 23.4043 27.296C23.4043 25.5893 23.7883 24.0533 24.5563 22.688C25.3243 21.3227 26.3696 20.2347 27.6923 19.424C29.0363 18.6133 30.5296 18.208 32.1723 18.208C33.4949 18.208 34.6683 18.4747 35.6923 19.008C36.7376 19.52 37.5589 20.2453 38.1562 21.184L37.7403 22.048V18.592H41.7083V42.4H37.5163ZM32.6523 32.544C33.6123 32.544 34.4549 32.32 35.1803 31.872C35.9056 31.424 36.4709 30.8053 36.8763 30.016C37.3029 29.2267 37.5163 28.32 37.5163 27.296C37.5163 26.2933 37.3029 25.3973 36.8763 24.608C36.4709 23.7973 35.9056 23.168 35.1803 22.72C34.4549 22.272 33.6123 22.048 32.6523 22.048C31.7136 22.048 30.8709 22.2827 30.1243 22.752C29.3776 23.2 28.7909 23.8187 28.3643 24.608C27.9589 25.376 27.7563 26.272 27.7563 27.296C27.7563 28.32 27.9589 29.2267 28.3643 30.016C28.7909 30.8053 29.3776 31.424 30.1243 31.872C30.8709 32.32 31.7136 32.544 32.6523 32.544ZM51.8163 36.384C50.4723 36.384 49.2989 36.0853 48.2963 35.488C47.3149 34.8907 46.5576 34.0587 46.0243 32.992C45.5123 31.9253 45.2563 30.6773 45.2563 29.248V18.592H49.4483V28.896C49.4483 29.6213 49.5869 30.2613 49.8643 30.816C50.1629 31.3493 50.5789 31.776 51.1123 32.096C51.6669 32.3947 52.2856 32.544 52.9683 32.544C53.6509 32.544 54.2589 32.3947 54.7923 32.096C55.3256 31.776 55.7416 31.3387 56.0403 30.784C56.3389 30.2293 56.4883 29.568 56.4883 28.8V18.592H60.6803V36H56.7123V32.576L57.0643 33.184C56.6589 34.2507 55.9869 35.0507 55.0483 35.584C54.1309 36.1173 53.0536 36.384 51.8163 36.384ZM69.857 36.384C68.641 36.384 67.585 36.1813 66.689 35.776C65.793 35.3707 65.0997 34.7947 64.609 34.048C64.1183 33.28 63.873 32.3947 63.873 31.392C63.873 30.432 64.0863 29.5787 64.513 28.832C64.9397 28.064 65.601 27.424 66.497 26.912C67.393 26.4 68.5237 26.0373 69.889 25.824L75.585 24.896V28.096L70.689 28.928C69.857 29.0773 69.2383 29.344 68.833 29.728C68.4277 30.112 68.225 30.6133 68.225 31.232C68.225 31.8293 68.449 32.3093 68.897 32.672C69.3663 33.0133 69.9423 33.184 70.625 33.184C71.4997 33.184 72.2677 33.0027 72.929 32.64C73.6117 32.256 74.1343 31.7333 74.497 31.072C74.881 30.4107 75.073 29.6853 75.073 28.896V24.416C75.073 23.6693 74.7743 23.0507 74.177 22.56C73.601 22.048 72.833 21.792 71.873 21.792C70.977 21.792 70.177 22.0373 69.473 22.528C68.7903 22.9973 68.289 23.6267 67.969 24.416L64.545 22.752C64.8863 21.8347 65.4197 21.0453 66.145 20.384C66.8917 19.7013 67.7663 19.168 68.769 18.784C69.7717 18.4 70.8597 18.208 72.033 18.208C73.4623 18.208 74.721 18.4747 75.809 19.008C76.897 19.52 77.7397 20.2453 78.337 21.184C78.9557 22.1013 79.265 23.1787 79.265 24.416V36H75.297V33.024L76.193 32.96C75.745 33.7067 75.2117 34.336 74.593 34.848C73.9743 35.3387 73.2703 35.7227 72.481 36C71.6917 36.256 70.817 36.384 69.857 36.384Z" fill="white"/>
<path d="M86.304 36V12.16H90.464L99.392 24.288H97.408L106.144 12.16H110.304V36H105.92V17.12L107.616 17.536L98.56 29.6H98.048L89.216 17.536L90.656 17.12V36H86.304ZM119.795 36.384C118.579 36.384 117.523 36.1813 116.627 35.776C115.731 35.3707 115.037 34.7947 114.547 34.048C114.056 33.28 113.811 32.3947 113.811 31.392C113.811 30.432 114.024 29.5787 114.451 28.832C114.877 28.064 115.539 27.424 116.435 26.912C117.331 26.4 118.461 26.0373 119.827 25.824L125.523 24.896V28.096L120.627 28.928C119.795 29.0773 119.176 29.344 118.771 29.728C118.365 30.112 118.163 30.6133 118.163 31.232C118.163 31.8293 118.387 32.3093 118.835 32.672C119.304 33.0133 119.88 33.184 120.562 33.184C121.437 33.184 122.205 33.0027 122.867 32.64C123.549 32.256 124.072 31.7333 124.435 31.072C124.819 30.4107 125.011 29.6853 125.011 28.896V24.416C125.011 23.6693 124.712 23.0507 124.115 22.56C123.539 22.048 122.771 21.792 121.811 21.792C120.915 21.792 120.115 22.0373 119.411 22.528C118.728 22.9973 118.227 23.6267 117.907 24.416L114.483 22.752C114.824 21.8347 115.357 21.0453 116.083 20.384C116.829 19.7013 117.704 19.168 118.707 18.784C119.709 18.4 120.797 18.208 121.97 18.208C123.4 18.208 124.659 18.4747 125.747 19.008C126.835 19.52 127.677 20.2453 128.275 21.184C128.893 22.1013 129.203 23.1787 129.203 24.416V36H125.235V33.024L126.131 32.96C125.683 33.7067 125.149 34.336 124.531 34.848C123.912 35.3387 123.208 35.7227 122.419 36C121.629 36.256 120.755 36.384 119.795 36.384ZM133.077 36V18.592H137.013V22.016L136.693 21.408C137.098 20.3627 137.76 19.5733 138.677 19.04C139.616 18.4853 140.704 18.208 141.941 18.208C143.221 18.208 144.352 18.4853 145.333 19.04C146.336 19.5947 147.114 20.3733 147.669 21.376C148.224 22.3573 148.501 23.4987 148.501 24.8V36H144.309V25.792C144.309 25.024 144.16 24.3627 143.861 23.808C143.562 23.2533 143.146 22.8267 142.613 22.528C142.101 22.208 141.493 22.048 140.789 22.048C140.106 22.048 139.498 22.208 138.965 22.528C138.432 22.8267 138.016 23.2533 137.717 23.808C137.418 24.3627 137.269 25.024 137.269 25.792V36H133.077ZM160.91 36.384C159.395 36.384 157.987 36.1067 156.686 35.552C155.406 34.9973 154.296 34.2293 153.358 33.248C152.44 32.2453 151.768 31.0827 151.342 29.76L154.958 28.192C155.534 29.5573 156.366 30.6347 157.454 31.424C158.542 32.192 159.768 32.576 161.134 32.576C161.902 32.576 162.563 32.4587 163.118 32.224C163.694 31.968 164.131 31.6267 164.43 31.2C164.75 30.7733 164.91 30.2613 164.91 29.664C164.91 28.96 164.696 28.384 164.27 27.936C163.864 27.4667 163.246 27.104 162.414 26.848L157.838 25.376C155.982 24.8 154.584 23.936 153.646 22.784C152.707 21.632 152.238 20.2773 152.238 18.72C152.238 17.3547 152.568 16.1493 153.23 15.104C153.912 14.0587 154.851 13.248 156.046 12.672C157.262 12.0747 158.648 11.776 160.206 11.776C161.635 11.776 162.947 12.032 164.142 12.544C165.336 13.0347 166.36 13.728 167.214 14.624C168.088 15.4987 168.739 16.5333 169.166 17.728L165.582 19.328C165.112 18.1333 164.408 17.216 163.47 16.576C162.531 15.9147 161.443 15.584 160.206 15.584C159.48 15.584 158.84 15.712 158.286 15.968C157.731 16.2027 157.294 16.544 156.974 16.992C156.675 17.4187 156.526 17.9307 156.526 18.528C156.526 19.1893 156.739 19.776 157.166 20.288C157.592 20.7787 158.243 21.1627 159.118 21.44L163.502 22.816C165.4 23.4347 166.819 24.288 167.758 25.376C168.718 26.464 169.198 27.808 169.198 29.408C169.198 30.7733 168.846 31.9787 168.142 33.024C167.438 34.0693 166.467 34.8907 165.23 35.488C163.992 36.0853 162.552 36.384 160.91 36.384Z" fill="#0B0B0C"/>
</svg>
