<svg width="461" height="171" viewBox="0 0 461 171" fill="none" xmlns="http://www.w3.org/2000/svg">
<path d="M173.79 104L179.11 93.57H179.782L182.19 104H181.434L180.818 101.242H176.002L174.602 104H173.79ZM176.31 100.612H180.678L179.222 94.158L179.558 94.2L176.31 100.612ZM186.247 104.168C185.752 104.168 185.304 104.056 184.903 103.832C184.502 103.608 184.198 103.277 183.993 102.838C183.788 102.399 183.732 101.863 183.825 101.228L184.483 96.636H185.113L184.455 101.284C184.38 101.797 184.418 102.227 184.567 102.572C184.716 102.908 184.94 103.16 185.239 103.328C185.547 103.487 185.892 103.566 186.275 103.566C186.76 103.566 187.185 103.454 187.549 103.23C187.922 103.006 188.221 102.707 188.445 102.334C188.678 101.951 188.828 101.536 188.893 101.088L189.523 96.636H190.153L189.117 104H188.487L188.697 102.446L188.865 102.544C188.65 103.029 188.305 103.421 187.829 103.72C187.362 104.019 186.835 104.168 186.247 104.168ZM194.175 104.084C193.587 104.084 193.158 103.925 192.887 103.608C192.616 103.291 192.523 102.824 192.607 102.208L193.307 97.196H191.907L191.991 96.636H192.663C192.906 96.636 193.092 96.5707 193.223 96.44C193.363 96.3093 193.452 96.1133 193.489 95.852L193.629 94.9H194.259L194.021 96.636H195.617L195.533 97.196H193.951L193.237 102.264C193.218 102.432 193.218 102.614 193.237 102.81C193.256 102.997 193.335 103.155 193.475 103.286C193.615 103.417 193.858 103.482 194.203 103.482C194.296 103.482 194.399 103.477 194.511 103.468C194.623 103.459 194.712 103.449 194.777 103.44L194.749 104.028C194.656 104.056 194.548 104.07 194.427 104.07C194.306 104.079 194.222 104.084 194.175 104.084ZM200.326 104.168C199.654 104.168 199.052 104.014 198.52 103.706C197.997 103.398 197.587 102.973 197.288 102.432C196.989 101.891 196.84 101.279 196.84 100.598C196.84 100.029 196.938 99.4967 197.134 99.002C197.339 98.498 197.619 98.0593 197.974 97.686C198.338 97.3033 198.763 97.0047 199.248 96.79C199.733 96.5753 200.256 96.468 200.816 96.468C201.497 96.468 202.095 96.622 202.608 96.93C203.131 97.238 203.541 97.6627 203.84 98.204C204.139 98.736 204.288 99.3473 204.288 100.038C204.288 100.607 204.185 101.144 203.98 101.648C203.784 102.143 203.504 102.581 203.14 102.964C202.785 103.337 202.365 103.631 201.88 103.846C201.404 104.061 200.886 104.168 200.326 104.168ZM200.312 103.566C200.937 103.566 201.497 103.403 201.992 103.076C202.496 102.749 202.893 102.315 203.182 101.774C203.471 101.233 203.616 100.645 203.616 100.01C203.616 99.45 203.495 98.9507 203.252 98.512C203.019 98.064 202.692 97.714 202.272 97.462C201.852 97.2007 201.371 97.07 200.83 97.07C200.205 97.07 199.64 97.2333 199.136 97.56C198.641 97.8773 198.245 98.3067 197.946 98.848C197.657 99.38 197.512 99.9633 197.512 100.598C197.512 101.158 197.633 101.662 197.876 102.11C198.119 102.558 198.45 102.913 198.87 103.174C199.299 103.435 199.78 103.566 200.312 103.566ZM205.927 104L206.963 96.636H207.593L207.369 98.162L207.257 97.938C207.5 97.4993 207.845 97.1447 208.293 96.874C208.75 96.6033 209.236 96.468 209.749 96.468C210.328 96.468 210.841 96.6407 211.289 96.986C211.737 97.3313 212.008 97.8167 212.101 98.442L211.877 98.4C212.092 97.8213 212.456 97.3547 212.969 97C213.492 96.6453 214.052 96.468 214.649 96.468C215.134 96.468 215.568 96.5847 215.951 96.818C216.334 97.0513 216.623 97.3827 216.819 97.812C217.024 98.2413 217.085 98.75 217.001 99.338L216.357 104H215.727L216.371 99.352C216.446 98.8573 216.408 98.442 216.259 98.106C216.119 97.77 215.904 97.5133 215.615 97.336C215.326 97.1587 214.994 97.07 214.621 97.07C214.173 97.07 213.767 97.182 213.403 97.406C213.039 97.63 212.74 97.9287 212.507 98.302C212.283 98.6753 212.138 99.0907 212.073 99.548L211.457 104H210.827L211.471 99.352C211.546 98.8573 211.508 98.442 211.359 98.106C211.219 97.77 211.004 97.5133 210.715 97.336C210.426 97.1587 210.094 97.07 209.721 97.07C209.273 97.07 208.867 97.182 208.503 97.406C208.139 97.63 207.84 97.9287 207.607 98.302C207.383 98.6753 207.238 99.0907 207.173 99.548L206.557 104H205.927ZM220.867 104.168C220.447 104.168 220.064 104.093 219.719 103.944C219.383 103.785 219.117 103.561 218.921 103.272C218.725 102.983 218.627 102.637 218.627 102.236C218.627 101.807 218.734 101.429 218.949 101.102C219.173 100.766 219.481 100.491 219.873 100.276C220.274 100.052 220.736 99.898 221.259 99.814L224.409 99.296L224.353 99.898L221.441 100.374C220.788 100.477 220.26 100.691 219.859 101.018C219.467 101.335 219.271 101.741 219.271 102.236C219.271 102.684 219.425 103.02 219.733 103.244C220.041 103.468 220.438 103.58 220.923 103.58C221.492 103.58 221.996 103.44 222.435 103.16C222.883 102.88 223.252 102.507 223.541 102.04C223.83 101.573 224.012 101.06 224.087 100.5L224.297 99.016C224.353 98.6147 224.306 98.2693 224.157 97.98C224.008 97.6907 223.779 97.4667 223.471 97.308C223.172 97.1493 222.813 97.07 222.393 97.07C221.908 97.07 221.45 97.1913 221.021 97.434C220.592 97.6673 220.242 97.9753 219.971 98.358L219.425 98.036C219.593 97.756 219.826 97.4993 220.125 97.266C220.424 97.0233 220.764 96.832 221.147 96.692C221.539 96.5427 221.95 96.468 222.379 96.468C222.902 96.468 223.368 96.58 223.779 96.804C224.19 97.0187 224.498 97.3267 224.703 97.728C224.918 98.12 224.988 98.5773 224.913 99.1L224.227 104H223.597L223.821 102.39H223.919C223.76 102.698 223.532 102.987 223.233 103.258C222.934 103.529 222.58 103.748 222.169 103.916C221.768 104.084 221.334 104.168 220.867 104.168ZM229.011 104.084C228.423 104.084 227.994 103.925 227.723 103.608C227.452 103.291 227.359 102.824 227.443 102.208L228.143 97.196H226.743L226.827 96.636H227.499C227.742 96.636 227.928 96.5707 228.059 96.44C228.199 96.3093 228.288 96.1133 228.325 95.852L228.465 94.9H229.095L228.857 96.636H230.453L230.369 97.196H228.787L228.073 102.264C228.054 102.432 228.054 102.614 228.073 102.81C228.092 102.997 228.171 103.155 228.311 103.286C228.451 103.417 228.694 103.482 229.039 103.482C229.132 103.482 229.235 103.477 229.347 103.468C229.459 103.459 229.548 103.449 229.613 103.44L229.585 104.028C229.492 104.056 229.384 104.07 229.263 104.07C229.142 104.079 229.058 104.084 229.011 104.084ZM235.176 104.168C234.504 104.168 233.902 104.009 233.37 103.692C232.847 103.375 232.437 102.945 232.138 102.404C231.839 101.863 231.69 101.251 231.69 100.57C231.69 100.019 231.788 99.4967 231.984 99.002C232.18 98.5073 232.451 98.0733 232.796 97.7C233.141 97.3173 233.547 97.0187 234.014 96.804C234.481 96.58 234.985 96.468 235.526 96.468C236.142 96.468 236.683 96.6127 237.15 96.902C237.626 97.182 237.999 97.5647 238.27 98.05C238.541 98.5353 238.676 99.0907 238.676 99.716C238.676 99.8467 238.667 99.982 238.648 100.122C238.629 100.262 238.606 100.393 238.578 100.514H232.012L232.054 99.954H238.256L238.004 100.122C238.079 99.534 238.018 99.0113 237.822 98.554C237.626 98.0873 237.327 97.7233 236.926 97.462C236.534 97.1913 236.072 97.056 235.54 97.056C234.933 97.056 234.387 97.224 233.902 97.56C233.417 97.8867 233.029 98.3207 232.74 98.862C232.46 99.4033 232.32 99.9867 232.32 100.612C232.32 101.181 232.441 101.69 232.684 102.138C232.927 102.586 233.258 102.941 233.678 103.202C234.107 103.454 234.602 103.58 235.162 103.58C235.703 103.58 236.198 103.454 236.646 103.202C237.103 102.941 237.477 102.581 237.766 102.124L238.284 102.432C238.079 102.787 237.813 103.095 237.486 103.356C237.169 103.617 236.814 103.818 236.422 103.958C236.03 104.098 235.615 104.168 235.176 104.168ZM243.869 104.168C243.197 104.168 242.604 104.009 242.091 103.692C241.578 103.365 241.176 102.931 240.887 102.39C240.607 101.849 240.467 101.247 240.467 100.584C240.467 100.024 240.565 99.4967 240.761 99.002C240.966 98.5073 241.242 98.0733 241.587 97.7C241.942 97.3173 242.357 97.0187 242.833 96.804C243.309 96.58 243.818 96.468 244.359 96.468C245.078 96.468 245.712 96.6593 246.263 97.042C246.823 97.4153 247.215 97.9287 247.439 98.582L247.341 98.722L248.083 93.402H248.727L247.243 104H246.613L246.893 101.914L247.145 102.166C246.828 102.773 246.375 103.258 245.787 103.622C245.208 103.986 244.569 104.168 243.869 104.168ZM243.855 103.538C244.48 103.538 245.036 103.379 245.521 103.062C246.016 102.735 246.403 102.306 246.683 101.774C246.963 101.233 247.103 100.64 247.103 99.996C247.103 99.408 246.977 98.8993 246.725 98.47C246.482 98.0313 246.156 97.6953 245.745 97.462C245.334 97.2193 244.872 97.098 244.359 97.098C243.743 97.098 243.192 97.2613 242.707 97.588C242.222 97.9053 241.839 98.33 241.559 98.862C241.279 99.394 241.139 99.982 241.139 100.626C241.139 101.186 241.251 101.685 241.475 102.124C241.708 102.563 242.03 102.908 242.441 103.16C242.852 103.412 243.323 103.538 243.855 103.538ZM251.022 104L256.342 93.57H257.014L259.422 104H258.666L258.05 101.242H253.234L251.834 104H251.022ZM253.542 100.612H257.91L256.454 94.158L256.79 94.2L253.542 100.612ZM266.661 106.8L267.319 101.914L267.571 102.166C267.253 102.773 266.801 103.258 266.213 103.622C265.634 103.986 264.995 104.168 264.295 104.168C263.623 104.168 263.03 104.009 262.517 103.692C262.003 103.365 261.602 102.931 261.313 102.39C261.033 101.849 260.893 101.247 260.893 100.584C260.893 100.024 260.991 99.4967 261.187 99.002C261.392 98.5073 261.667 98.0733 262.013 97.7C262.367 97.3173 262.783 97.0187 263.259 96.804C263.735 96.58 264.243 96.468 264.785 96.468C265.503 96.468 266.138 96.6593 266.689 97.042C267.249 97.4153 267.641 97.9287 267.865 98.582L267.767 98.722L268.061 96.636H268.691L267.291 106.8H266.661ZM264.281 103.538C264.906 103.538 265.461 103.379 265.947 103.062C266.441 102.735 266.829 102.306 267.109 101.774C267.389 101.233 267.529 100.64 267.529 99.996C267.529 99.408 267.403 98.8993 267.151 98.47C266.908 98.0313 266.581 97.6953 266.171 97.462C265.76 97.2193 265.298 97.098 264.785 97.098C264.169 97.098 263.618 97.2613 263.133 97.588C262.647 97.9053 262.265 98.33 261.985 98.862C261.705 99.394 261.565 99.982 261.565 100.626C261.565 101.186 261.677 101.685 261.901 102.124C262.134 102.563 262.456 102.908 262.867 103.16C263.277 103.412 263.749 103.538 264.281 103.538ZM272.804 104.168C272.309 104.168 271.861 104.056 271.46 103.832C271.058 103.608 270.755 103.277 270.55 102.838C270.344 102.399 270.288 101.863 270.382 101.228L271.04 96.636H271.67L271.012 101.284C270.937 101.797 270.974 102.227 271.124 102.572C271.273 102.908 271.497 103.16 271.796 103.328C272.104 103.487 272.449 103.566 272.832 103.566C273.317 103.566 273.742 103.454 274.106 103.23C274.479 103.006 274.778 102.707 275.002 102.334C275.235 101.951 275.384 101.536 275.45 101.088L276.08 96.636H276.71L275.674 104H275.044L275.254 102.446L275.422 102.544C275.207 103.029 274.862 103.421 274.386 103.72C273.919 104.019 273.392 104.168 272.804 104.168ZM280.34 104.168C279.92 104.168 279.537 104.093 279.192 103.944C278.856 103.785 278.59 103.561 278.394 103.272C278.198 102.983 278.1 102.637 278.1 102.236C278.1 101.807 278.207 101.429 278.422 101.102C278.646 100.766 278.954 100.491 279.346 100.276C279.747 100.052 280.209 99.898 280.732 99.814L283.882 99.296L283.826 99.898L280.914 100.374C280.26 100.477 279.733 100.691 279.332 101.018C278.94 101.335 278.744 101.741 278.744 102.236C278.744 102.684 278.898 103.02 279.206 103.244C279.514 103.468 279.91 103.58 280.396 103.58C280.965 103.58 281.469 103.44 281.908 103.16C282.356 102.88 282.724 102.507 283.014 102.04C283.303 101.573 283.485 101.06 283.56 100.5L283.77 99.016C283.826 98.6147 283.779 98.2693 283.63 97.98C283.48 97.6907 283.252 97.4667 282.944 97.308C282.645 97.1493 282.286 97.07 281.866 97.07C281.38 97.07 280.923 97.1913 280.494 97.434C280.064 97.6673 279.714 97.9753 279.444 98.358L278.898 98.036C279.066 97.756 279.299 97.4993 279.598 97.266C279.896 97.0233 280.237 96.832 280.62 96.692C281.012 96.5427 281.422 96.468 281.852 96.468C282.374 96.468 282.841 96.58 283.252 96.804C283.662 97.0187 283.97 97.3267 284.176 97.728C284.39 98.12 284.46 98.5773 284.386 99.1L283.7 104H283.07L283.294 102.39H283.392C283.233 102.698 283.004 102.987 282.706 103.258C282.407 103.529 282.052 103.748 281.642 103.916C281.24 104.084 280.806 104.168 280.34 104.168ZM289.807 104.168C289.163 104.168 288.58 104.019 288.057 103.72C287.544 103.412 287.133 102.992 286.825 102.46C286.526 101.919 286.377 101.298 286.377 100.598C286.377 100.029 286.48 99.4967 286.685 99.002C286.89 98.498 287.17 98.0593 287.525 97.686C287.889 97.3033 288.309 97.0047 288.785 96.79C289.261 96.5753 289.77 96.468 290.311 96.468C290.768 96.468 291.188 96.5473 291.571 96.706C291.954 96.8553 292.28 97.0607 292.551 97.322C292.831 97.5833 293.046 97.882 293.195 98.218L292.649 98.484C292.425 98.0173 292.112 97.6627 291.711 97.42C291.31 97.1773 290.843 97.056 290.311 97.056C289.676 97.056 289.107 97.2193 288.603 97.546C288.108 97.8633 287.716 98.2927 287.427 98.834C287.147 99.3753 287.007 99.9727 287.007 100.626C287.007 101.242 287.133 101.769 287.385 102.208C287.637 102.647 287.973 102.987 288.393 103.23C288.822 103.463 289.294 103.58 289.807 103.58C290.348 103.58 290.838 103.454 291.277 103.202C291.725 102.941 292.094 102.581 292.383 102.124L292.901 102.432C292.714 102.759 292.462 103.057 292.145 103.328C291.837 103.589 291.482 103.795 291.081 103.944C290.689 104.093 290.264 104.168 289.807 104.168ZM297.495 104.168C297 104.168 296.552 104.056 296.151 103.832C295.75 103.608 295.446 103.277 295.241 102.838C295.036 102.399 294.98 101.863 295.073 101.228L295.731 96.636H296.361L295.703 101.284C295.628 101.797 295.666 102.227 295.815 102.572C295.964 102.908 296.188 103.16 296.487 103.328C296.795 103.487 297.14 103.566 297.523 103.566C298.008 103.566 298.433 103.454 298.797 103.23C299.17 103.006 299.469 102.707 299.693 102.334C299.926 101.951 300.076 101.536 300.141 101.088L300.771 96.636H301.401L300.365 104H299.735L299.945 102.446L300.113 102.544C299.898 103.029 299.553 103.421 299.077 103.72C298.61 104.019 298.083 104.168 297.495 104.168ZM302.847 104L304.331 93.402H304.961L303.477 104H302.847ZM308.527 104.084C307.939 104.084 307.509 103.925 307.239 103.608C306.968 103.291 306.875 102.824 306.959 102.208L307.659 97.196H306.259L306.343 96.636H307.015C307.257 96.636 307.444 96.5707 307.575 96.44C307.715 96.3093 307.803 96.1133 307.841 95.852L307.981 94.9H308.611L308.373 96.636H309.969L309.885 97.196H308.303L307.589 102.264C307.57 102.432 307.57 102.614 307.589 102.81C307.607 102.997 307.687 103.155 307.827 103.286C307.967 103.417 308.209 103.482 308.555 103.482C308.648 103.482 308.751 103.477 308.863 103.468C308.975 103.459 309.063 103.449 309.129 103.44L309.101 104.028C309.007 104.056 308.9 104.07 308.779 104.07C308.657 104.079 308.573 104.084 308.527 104.084ZM313.915 104.168C313.42 104.168 312.972 104.056 312.571 103.832C312.17 103.608 311.866 103.277 311.661 102.838C311.456 102.399 311.4 101.863 311.493 101.228L312.151 96.636H312.781L312.123 101.284C312.048 101.797 312.086 102.227 312.235 102.572C312.384 102.908 312.608 103.16 312.907 103.328C313.215 103.487 313.56 103.566 313.943 103.566C314.428 103.566 314.853 103.454 315.217 103.23C315.59 103.006 315.889 102.707 316.113 102.334C316.346 101.951 316.496 101.536 316.561 101.088L317.191 96.636H317.821L316.785 104H316.155L316.365 102.446L316.533 102.544C316.318 103.029 315.973 103.421 315.497 103.72C315.03 104.019 314.503 104.168 313.915 104.168ZM319.253 104L320.289 96.636H320.933L320.709 98.19L320.541 98.12C320.756 97.6253 321.092 97.2427 321.549 96.972C322.006 96.692 322.51 96.552 323.061 96.552H323.523L323.439 97.182H322.963C322.291 97.182 321.74 97.4013 321.311 97.84C320.882 98.2787 320.616 98.8387 320.513 99.52L319.883 104H319.253ZM327.735 104.168C327.063 104.168 326.461 104.009 325.929 103.692C325.406 103.375 324.995 102.945 324.697 102.404C324.398 101.863 324.249 101.251 324.249 100.57C324.249 100.019 324.347 99.4967 324.543 99.002C324.739 98.5073 325.009 98.0733 325.355 97.7C325.7 97.3173 326.106 97.0187 326.573 96.804C327.039 96.58 327.543 96.468 328.085 96.468C328.701 96.468 329.242 96.6127 329.709 96.902C330.185 97.182 330.558 97.5647 330.829 98.05C331.099 98.5353 331.235 99.0907 331.235 99.716C331.235 99.8467 331.225 99.982 331.207 100.122C331.188 100.262 331.165 100.393 331.137 100.514H324.571L324.613 99.954H330.815L330.563 100.122C330.637 99.534 330.577 99.0113 330.381 98.554C330.185 98.0873 329.886 97.7233 329.485 97.462C329.093 97.1913 328.631 97.056 328.099 97.056C327.492 97.056 326.946 97.224 326.461 97.56C325.975 97.8867 325.588 98.3207 325.299 98.862C325.019 99.4033 324.879 99.9867 324.879 100.612C324.879 101.181 325 101.69 325.243 102.138C325.485 102.586 325.817 102.941 326.237 103.202C326.666 103.454 327.161 103.58 327.721 103.58C328.262 103.58 328.757 103.454 329.205 103.202C329.662 102.941 330.035 102.581 330.325 102.124L330.843 102.432C330.637 102.787 330.371 103.095 330.045 103.356C329.727 103.617 329.373 103.818 328.981 103.958C328.589 104.098 328.173 104.168 327.735 104.168ZM337.468 104L338.924 93.57H339.484L342.48 99.478H342.312L347.044 93.57H347.604L346.148 104H345.448L346.75 94.732L346.89 94.844L342.298 100.556H342.27L339.386 94.844L339.47 94.732L338.168 104H337.468ZM352.467 104.168C351.795 104.168 351.193 104.014 350.661 103.706C350.138 103.398 349.727 102.973 349.429 102.432C349.13 101.891 348.981 101.279 348.981 100.598C348.981 100.029 349.079 99.4967 349.275 99.002C349.48 98.498 349.76 98.0593 350.115 97.686C350.479 97.3033 350.903 97.0047 351.389 96.79C351.874 96.5753 352.397 96.468 352.957 96.468C353.638 96.468 354.235 96.622 354.749 96.93C355.271 97.238 355.682 97.6627 355.981 98.204C356.279 98.736 356.429 99.3473 356.429 100.038C356.429 100.607 356.326 101.144 356.121 101.648C355.925 102.143 355.645 102.581 355.281 102.964C354.926 103.337 354.506 103.631 354.021 103.846C353.545 104.061 353.027 104.168 352.467 104.168ZM352.453 103.566C353.078 103.566 353.638 103.403 354.133 103.076C354.637 102.749 355.033 102.315 355.323 101.774C355.612 101.233 355.757 100.645 355.757 100.01C355.757 99.45 355.635 98.9507 355.393 98.512C355.159 98.064 354.833 97.714 354.413 97.462C353.993 97.2007 353.512 97.07 352.971 97.07C352.345 97.07 351.781 97.2333 351.277 97.56C350.782 97.8773 350.385 98.3067 350.087 98.848C349.797 99.38 349.653 99.9633 349.653 100.598C349.653 101.158 349.774 101.662 350.017 102.11C350.259 102.558 350.591 102.913 351.011 103.174C351.44 103.435 351.921 103.566 352.453 103.566ZM358.068 104L359.104 96.636H359.734L359.51 98.19L359.342 98.092C359.556 97.5973 359.902 97.2053 360.378 96.916C360.863 96.6173 361.39 96.468 361.96 96.468C362.464 96.468 362.912 96.5847 363.304 96.818C363.705 97.0513 364.004 97.3827 364.2 97.812C364.405 98.2413 364.466 98.75 364.382 99.338L363.738 104H363.108L363.752 99.352C363.854 98.6147 363.724 98.05 363.36 97.658C363.005 97.266 362.529 97.07 361.932 97.07C361.456 97.07 361.031 97.182 360.658 97.406C360.294 97.63 359.995 97.9287 359.762 98.302C359.528 98.6753 359.379 99.0907 359.314 99.548L358.698 104H358.068ZM366.066 104L367.102 96.636H367.732L366.696 104H366.066ZM367.312 95.11L367.522 93.57H368.152L367.942 95.11H367.312ZM371.745 104.084C371.157 104.084 370.728 103.925 370.457 103.608C370.187 103.291 370.093 102.824 370.177 102.208L370.877 97.196H369.477L369.561 96.636H370.233C370.476 96.636 370.663 96.5707 370.793 96.44C370.933 96.3093 371.022 96.1133 371.059 95.852L371.199 94.9H371.829L371.591 96.636H373.187L373.103 97.196H371.521L370.807 102.264C370.789 102.432 370.789 102.614 370.807 102.81C370.826 102.997 370.905 103.155 371.045 103.286C371.185 103.417 371.428 103.482 371.773 103.482C371.867 103.482 371.969 103.477 372.081 103.468C372.193 103.459 372.282 103.449 372.347 103.44L372.319 104.028C372.226 104.056 372.119 104.07 371.997 104.07C371.876 104.079 371.792 104.084 371.745 104.084ZM377.896 104.168C377.224 104.168 376.622 104.014 376.09 103.706C375.568 103.398 375.157 102.973 374.858 102.432C374.56 101.891 374.41 101.279 374.41 100.598C374.41 100.029 374.508 99.4967 374.704 99.002C374.91 98.498 375.19 98.0593 375.544 97.686C375.908 97.3033 376.333 97.0047 376.818 96.79C377.304 96.5753 377.826 96.468 378.386 96.468C379.068 96.468 379.665 96.622 380.178 96.93C380.701 97.238 381.112 97.6627 381.41 98.204C381.709 98.736 381.858 99.3473 381.858 100.038C381.858 100.607 381.756 101.144 381.55 101.648C381.354 102.143 381.074 102.581 380.71 102.964C380.356 103.337 379.936 103.631 379.45 103.846C378.974 104.061 378.456 104.168 377.896 104.168ZM377.882 103.566C378.508 103.566 379.068 103.403 379.562 103.076C380.066 102.749 380.463 102.315 380.752 101.774C381.042 101.233 381.186 100.645 381.186 100.01C381.186 99.45 381.065 98.9507 380.822 98.512C380.589 98.064 380.262 97.714 379.842 97.462C379.422 97.2007 378.942 97.07 378.4 97.07C377.775 97.07 377.21 97.2333 376.706 97.56C376.212 97.8773 375.815 98.3067 375.516 98.848C375.227 99.38 375.082 99.9633 375.082 100.598C375.082 101.158 375.204 101.662 375.446 102.11C375.689 102.558 376.02 102.913 376.44 103.174C376.87 103.435 377.35 103.566 377.882 103.566ZM383.497 104L384.533 96.636H385.177L384.953 98.19L384.785 98.12C385 97.6253 385.336 97.2427 385.793 96.972C386.251 96.692 386.755 96.552 387.305 96.552H387.767L387.683 97.182H387.207C386.535 97.182 385.985 97.4013 385.555 97.84C385.126 98.2787 384.86 98.8387 384.757 99.52L384.127 104H383.497ZM388.283 104L389.319 96.636H389.949L388.913 104H388.283ZM389.529 95.11L389.739 93.57H390.369L390.159 95.11H389.529ZM391.372 104L392.408 96.636H393.038L392.814 98.19L392.646 98.092C392.861 97.5973 393.206 97.2053 393.682 96.916C394.168 96.6173 394.695 96.468 395.264 96.468C395.768 96.468 396.216 96.5847 396.608 96.818C397.01 97.0513 397.308 97.3827 397.504 97.812C397.71 98.2413 397.77 98.75 397.686 99.338L397.042 104H396.412L397.056 99.352C397.159 98.6147 397.028 98.05 396.664 97.658C396.31 97.266 395.834 97.07 395.236 97.07C394.76 97.07 394.336 97.182 393.962 97.406C393.598 97.63 393.3 97.9287 393.066 98.302C392.833 98.6753 392.684 99.0907 392.618 99.548L392.002 104H391.372ZM402.493 107.08C401.979 107.08 401.522 107.001 401.121 106.842C400.719 106.683 400.379 106.469 400.099 106.198C399.828 105.927 399.623 105.629 399.483 105.302L400.029 105.05C400.243 105.507 400.565 105.862 400.995 106.114C401.424 106.366 401.937 106.492 402.535 106.492C402.973 106.492 403.412 106.394 403.851 106.198C404.299 106.011 404.686 105.727 405.013 105.344C405.339 104.961 405.54 104.481 405.615 103.902L405.923 101.634L406.147 101.886C405.839 102.493 405.4 102.978 404.831 103.342C404.261 103.706 403.627 103.888 402.927 103.888C402.273 103.888 401.695 103.734 401.191 103.426C400.687 103.118 400.295 102.703 400.015 102.18C399.735 101.657 399.595 101.074 399.595 100.43C399.595 99.8887 399.693 99.38 399.889 98.904C400.085 98.428 400.355 98.008 400.701 97.644C401.046 97.28 401.447 96.9953 401.905 96.79C402.371 96.5753 402.871 96.468 403.403 96.468C404.121 96.468 404.751 96.6547 405.293 97.028C405.843 97.4013 406.221 97.8913 406.427 98.498L406.329 98.722L406.623 96.636H407.253L406.231 103.972C406.147 104.56 405.927 105.087 405.573 105.554C405.218 106.021 404.775 106.389 404.243 106.66C403.711 106.94 403.127 107.08 402.493 107.08ZM402.927 103.258C403.533 103.258 404.075 103.104 404.551 102.796C405.027 102.488 405.4 102.082 405.671 101.578C405.951 101.065 406.091 100.5 406.091 99.884C406.091 99.352 405.979 98.876 405.755 98.456C405.531 98.036 405.213 97.7047 404.803 97.462C404.401 97.2193 403.935 97.098 403.403 97.098C402.796 97.098 402.255 97.2567 401.779 97.574C401.303 97.882 400.929 98.2927 400.659 98.806C400.397 99.31 400.267 99.8653 400.267 100.472C400.267 100.995 400.374 101.466 400.589 101.886C400.813 102.306 401.125 102.642 401.527 102.894C401.928 103.137 402.395 103.258 402.927 103.258ZM414.563 104.168C413.965 104.168 413.415 104.061 412.911 103.846C412.407 103.622 411.982 103.314 411.637 102.922C411.301 102.53 411.077 102.077 410.965 101.564L411.623 101.368C411.819 102.059 412.173 102.6 412.687 102.992C413.209 103.375 413.839 103.566 414.577 103.566C415.109 103.566 415.575 103.473 415.977 103.286C416.378 103.09 416.691 102.824 416.915 102.488C417.148 102.143 417.265 101.751 417.265 101.312C417.265 100.845 417.143 100.453 416.901 100.136C416.658 99.8187 416.294 99.59 415.809 99.45L413.919 98.89C413.275 98.694 412.785 98.3767 412.449 97.938C412.122 97.49 411.959 96.9533 411.959 96.328C411.959 95.7773 412.103 95.2827 412.393 94.844C412.682 94.396 413.074 94.046 413.569 93.794C414.063 93.5327 414.614 93.402 415.221 93.402C415.753 93.402 416.238 93.5047 416.677 93.71C417.115 93.9153 417.484 94.2 417.783 94.564C418.091 94.928 418.291 95.3527 418.385 95.838L417.741 96.034C417.573 95.3993 417.26 94.9047 416.803 94.55C416.355 94.186 415.813 94.004 415.179 94.004C414.693 94.004 414.259 94.1067 413.877 94.312C413.494 94.508 413.191 94.7833 412.967 95.138C412.743 95.4833 412.631 95.8753 412.631 96.314C412.631 96.8087 412.757 97.21 413.009 97.518C413.27 97.826 413.699 98.0733 414.297 98.26L416.005 98.778C416.639 98.974 417.12 99.2867 417.447 99.716C417.773 100.136 417.937 100.654 417.937 101.27C417.937 101.83 417.792 102.329 417.503 102.768C417.213 103.197 416.812 103.538 416.299 103.79C415.795 104.042 415.216 104.168 414.563 104.168ZM419.444 107.08C419.322 107.08 419.187 107.071 419.038 107.052C418.879 107.033 418.734 107.001 418.604 106.954L418.632 106.394C418.772 106.431 418.907 106.455 419.038 106.464C419.168 106.473 419.28 106.478 419.374 106.478C419.691 106.469 419.966 106.408 420.2 106.296C420.442 106.184 420.657 106.021 420.844 105.806C421.04 105.591 421.226 105.335 421.404 105.036L422.188 103.692L422.16 104.336L420.116 96.636H420.802L422.636 103.58H422.244L426.066 96.636H426.822L422.104 105.162C421.964 105.414 421.772 105.689 421.53 105.988C421.296 106.287 421.007 106.543 420.662 106.758C420.316 106.973 419.91 107.08 419.444 107.08ZM429.919 104.168C429.481 104.168 429.07 104.093 428.687 103.944C428.305 103.785 427.978 103.571 427.707 103.3C427.437 103.02 427.236 102.693 427.105 102.32L427.693 102.096C427.88 102.563 428.165 102.927 428.547 103.188C428.93 103.44 429.378 103.566 429.891 103.566C430.47 103.566 430.941 103.421 431.305 103.132C431.679 102.833 431.865 102.455 431.865 101.998C431.865 101.69 431.767 101.433 431.571 101.228C431.385 101.023 431.086 100.864 430.675 100.752L429.471 100.416C428.93 100.257 428.524 100.033 428.253 99.744C427.992 99.4547 427.861 99.0953 427.861 98.666C427.861 98.246 427.969 97.8727 428.183 97.546C428.398 97.21 428.687 96.9487 429.051 96.762C429.425 96.566 429.845 96.468 430.311 96.468C430.918 96.468 431.455 96.6267 431.921 96.944C432.388 97.252 432.691 97.6533 432.831 98.148L432.201 98.372C432.052 97.9613 431.814 97.644 431.487 97.42C431.161 97.1867 430.778 97.07 430.339 97.07C429.826 97.07 429.392 97.2193 429.037 97.518C428.692 97.8073 428.519 98.1713 428.519 98.61C428.519 98.8993 428.608 99.142 428.785 99.338C428.963 99.5247 429.238 99.6693 429.611 99.772L430.815 100.108C431.282 100.229 431.683 100.439 432.019 100.738C432.355 101.027 432.523 101.452 432.523 102.012C432.523 102.423 432.407 102.791 432.173 103.118C431.949 103.445 431.641 103.701 431.249 103.888C430.857 104.075 430.414 104.168 429.919 104.168ZM437.001 104.084C436.413 104.084 435.984 103.925 435.713 103.608C435.443 103.291 435.349 102.824 435.433 102.208L436.133 97.196H434.733L434.817 96.636H435.489C435.732 96.636 435.919 96.5707 436.049 96.44C436.189 96.3093 436.278 96.1133 436.315 95.852L436.455 94.9H437.085L436.847 96.636H438.443L438.359 97.196H436.777L436.063 102.264C436.045 102.432 436.045 102.614 436.063 102.81C436.082 102.997 436.161 103.155 436.301 103.286C436.441 103.417 436.684 103.482 437.029 103.482C437.123 103.482 437.225 103.477 437.337 103.468C437.449 103.459 437.538 103.449 437.603 103.44L437.575 104.028C437.482 104.056 437.375 104.07 437.253 104.07C437.132 104.079 437.048 104.084 437.001 104.084ZM443.166 104.168C442.494 104.168 441.892 104.009 441.36 103.692C440.838 103.375 440.427 102.945 440.128 102.404C439.83 101.863 439.68 101.251 439.68 100.57C439.68 100.019 439.778 99.4967 439.974 99.002C440.17 98.5073 440.441 98.0733 440.786 97.7C441.132 97.3173 441.538 97.0187 442.004 96.804C442.471 96.58 442.975 96.468 443.516 96.468C444.132 96.468 444.674 96.6127 445.14 96.902C445.616 97.182 445.99 97.5647 446.26 98.05C446.531 98.5353 446.666 99.0907 446.666 99.716C446.666 99.8467 446.657 99.982 446.638 100.122C446.62 100.262 446.596 100.393 446.568 100.514H440.002L440.044 99.954H446.246L445.994 100.122C446.069 99.534 446.008 99.0113 445.812 98.554C445.616 98.0873 445.318 97.7233 444.916 97.462C444.524 97.1913 444.062 97.056 443.53 97.056C442.924 97.056 442.378 97.224 441.892 97.56C441.407 97.8867 441.02 98.3207 440.73 98.862C440.45 99.4033 440.31 99.9867 440.31 100.612C440.31 101.181 440.432 101.69 440.674 102.138C440.917 102.586 441.248 102.941 441.668 103.202C442.098 103.454 442.592 103.58 443.152 103.58C443.694 103.58 444.188 103.454 444.636 103.202C445.094 102.941 445.467 102.581 445.756 102.124L446.274 102.432C446.069 102.787 445.803 103.095 445.476 103.356C445.159 103.617 444.804 103.818 444.412 103.958C444.02 104.098 443.605 104.168 443.166 104.168ZM448.247 104L449.283 96.636H449.913L449.689 98.162L449.577 97.938C449.82 97.4993 450.165 97.1447 450.613 96.874C451.071 96.6033 451.556 96.468 452.069 96.468C452.648 96.468 453.161 96.6407 453.609 96.986C454.057 97.3313 454.328 97.8167 454.421 98.442L454.197 98.4C454.412 97.8213 454.776 97.3547 455.289 97C455.812 96.6453 456.372 96.468 456.969 96.468C457.455 96.468 457.889 96.5847 458.271 96.818C458.654 97.0513 458.943 97.3827 459.139 97.812C459.345 98.2413 459.405 98.75 459.321 99.338L458.677 104H458.047L458.691 99.352C458.766 98.8573 458.729 98.442 458.579 98.106C458.439 97.77 458.225 97.5133 457.935 97.336C457.646 97.1587 457.315 97.07 456.941 97.07C456.493 97.07 456.087 97.182 455.723 97.406C455.359 97.63 455.061 97.9287 454.827 98.302C454.603 98.6753 454.459 99.0907 454.393 99.548L453.777 104H453.147L453.791 99.352C453.866 98.8573 453.829 98.442 453.679 98.106C453.539 97.77 453.325 97.5133 453.035 97.336C452.746 97.1587 452.415 97.07 452.041 97.07C451.593 97.07 451.187 97.182 450.823 97.406C450.459 97.63 450.161 97.9287 449.927 98.302C449.703 98.6753 449.559 99.0907 449.493 99.548L448.877 104H448.247Z" fill="white"/>
<path d="M191.408 82C191.173 81.232 190.907 80.4427 190.608 79.632C190.331 78.8213 190.053 78.0107 189.776 77.2H181.136C180.859 78.0107 180.571 78.8213 180.272 79.632C179.995 80.4427 179.739 81.232 179.504 82H174.32C175.152 79.6107 175.941 77.4027 176.688 75.376C177.435 73.3493 178.16 71.44 178.864 69.648C179.589 67.856 180.293 66.16 180.976 64.56C181.68 62.9387 182.405 61.36 183.152 59.824H187.92C188.645 61.36 189.36 62.9387 190.064 64.56C190.768 66.16 191.472 67.856 192.176 69.648C192.901 71.44 193.637 73.3493 194.384 75.376C195.131 77.4027 195.92 79.6107 196.752 82H191.408ZM185.424 64.848C185.317 65.168 185.157 65.6053 184.944 66.16C184.731 66.7147 184.485 67.3547 184.208 68.08C183.931 68.8053 183.621 69.6053 183.28 70.48C182.96 71.3547 182.629 72.272 182.288 73.232H188.592C188.251 72.272 187.92 71.3547 187.6 70.48C187.28 69.6053 186.971 68.8053 186.672 68.08C186.395 67.3547 186.149 66.7147 185.936 66.16C185.723 65.6053 185.552 65.168 185.424 64.848ZM215.271 81.424C214.46 81.6587 213.415 81.872 212.135 82.064C210.855 82.2773 209.511 82.384 208.103 82.384C206.673 82.384 205.479 82.192 204.519 81.808C203.58 81.424 202.833 80.8907 202.279 80.208C201.724 79.504 201.329 78.672 201.095 77.712C200.86 76.752 200.743 75.696 200.743 74.544V65.168H205.511V73.968C205.511 75.504 205.713 76.6133 206.119 77.296C206.524 77.9787 207.281 78.32 208.391 78.32C208.732 78.32 209.095 78.3093 209.479 78.288C209.863 78.2453 210.204 78.2027 210.503 78.16V65.168H215.271V81.424ZM221.186 60.976L225.954 60.208V65.168H231.682V69.136H225.954V75.056C225.954 76.0587 226.125 76.8587 226.466 77.456C226.829 78.0533 227.544 78.352 228.61 78.352C229.122 78.352 229.645 78.3093 230.178 78.224C230.733 78.1173 231.234 77.9787 231.682 77.808L232.354 81.52C231.778 81.7547 231.138 81.9573 230.434 82.128C229.73 82.2987 228.866 82.384 227.842 82.384C226.541 82.384 225.464 82.2133 224.61 81.872C223.757 81.5093 223.074 81.0187 222.562 80.4C222.05 79.76 221.688 78.992 221.474 78.096C221.282 77.2 221.186 76.208 221.186 75.12V60.976ZM252.284 73.552C252.284 74.8747 252.092 76.0907 251.708 77.2C251.324 78.288 250.769 79.2267 250.044 80.016C249.319 80.784 248.444 81.3813 247.42 81.808C246.417 82.2347 245.287 82.448 244.028 82.448C242.791 82.448 241.66 82.2347 240.636 81.808C239.633 81.3813 238.769 80.784 238.044 80.016C237.319 79.2267 236.753 78.288 236.348 77.2C235.943 76.0907 235.74 74.8747 235.74 73.552C235.74 72.2293 235.943 71.024 236.348 69.936C236.775 68.848 237.351 67.92 238.076 67.152C238.823 66.384 239.697 65.7867 240.7 65.36C241.724 64.9333 242.833 64.72 244.028 64.72C245.244 64.72 246.353 64.9333 247.356 65.36C248.38 65.7867 249.255 66.384 249.98 67.152C250.705 67.92 251.271 68.848 251.676 69.936C252.081 71.024 252.284 72.2293 252.284 73.552ZM247.42 73.552C247.42 72.08 247.121 70.928 246.524 70.096C245.948 69.2427 245.116 68.816 244.028 68.816C242.94 68.816 242.097 69.2427 241.5 70.096C240.903 70.928 240.604 72.08 240.604 73.552C240.604 75.024 240.903 76.1973 241.5 77.072C242.097 77.9253 242.94 78.352 244.028 78.352C245.116 78.352 245.948 77.9253 246.524 77.072C247.121 76.1973 247.42 75.024 247.42 73.552ZM272.746 82C272.511 81.232 272.244 80.4427 271.946 79.632C271.668 78.8213 271.391 78.0107 271.114 77.2H262.474C262.196 78.0107 261.908 78.8213 261.61 79.632C261.332 80.4427 261.076 81.232 260.842 82H255.658C256.49 79.6107 257.279 77.4027 258.026 75.376C258.772 73.3493 259.498 71.44 260.202 69.648C260.927 67.856 261.631 66.16 262.314 64.56C263.018 62.9387 263.743 61.36 264.49 59.824H269.258C269.983 61.36 270.698 62.9387 271.402 64.56C272.106 66.16 272.81 67.856 273.514 69.648C274.239 71.44 274.975 73.3493 275.722 75.376C276.468 77.4027 277.258 79.6107 278.09 82H272.746ZM266.762 64.848C266.655 65.168 266.495 65.6053 266.282 66.16C266.068 66.7147 265.823 67.3547 265.546 68.08C265.268 68.8053 264.959 69.6053 264.618 70.48C264.298 71.3547 263.967 72.272 263.626 73.232H269.93C269.588 72.272 269.258 71.3547 268.938 70.48C268.618 69.6053 268.308 68.8053 268.01 68.08C267.732 67.3547 267.487 66.7147 267.274 66.16C267.06 65.6053 266.89 65.168 266.762 64.848ZM285.96 73.712C285.96 76.7627 287.091 78.288 289.352 78.288C289.843 78.288 290.323 78.224 290.792 78.096C291.283 77.968 291.678 77.808 291.976 77.616V69.008C291.742 68.9653 291.443 68.9333 291.08 68.912C290.718 68.8693 290.323 68.848 289.896 68.848C288.595 68.848 287.614 69.296 286.952 70.192C286.291 71.0667 285.96 72.24 285.96 73.712ZM281.096 73.584C281.096 72.2827 281.288 71.0987 281.672 70.032C282.078 68.944 282.654 68.016 283.4 67.248C284.147 66.4587 285.064 65.8507 286.152 65.424C287.24 64.9973 288.478 64.784 289.864 64.784C290.44 64.784 291.038 64.816 291.656 64.88C292.296 64.9227 292.915 64.9867 293.512 65.072C294.131 65.1573 294.718 65.264 295.272 65.392C295.827 65.4987 296.318 65.616 296.744 65.744V87.92H291.976V81.584C291.443 81.8187 290.888 82 290.312 82.128C289.736 82.256 289.118 82.32 288.456 82.32C286.067 82.32 284.243 81.5413 282.984 79.984C281.726 78.4053 281.096 76.272 281.096 73.584ZM317.177 81.424C316.366 81.6587 315.321 81.872 314.041 82.064C312.761 82.2773 311.417 82.384 310.009 82.384C308.579 82.384 307.385 82.192 306.425 81.808C305.486 81.424 304.739 80.8907 304.185 80.208C303.63 79.504 303.235 78.672 303.001 77.712C302.766 76.752 302.649 75.696 302.649 74.544V65.168H307.417V73.968C307.417 75.504 307.619 76.6133 308.025 77.296C308.43 77.9787 309.187 78.32 310.297 78.32C310.638 78.32 311.001 78.3093 311.385 78.288C311.769 78.2453 312.11 78.2027 312.409 78.16V65.168H317.177V81.424ZM329.684 78.672C330.154 78.672 330.602 78.6613 331.028 78.64C331.455 78.6187 331.796 78.5867 332.052 78.544V74.928C331.86 74.8853 331.572 74.8427 331.188 74.8C330.804 74.7573 330.452 74.736 330.132 74.736C329.684 74.736 329.258 74.768 328.852 74.832C328.468 74.8747 328.127 74.9707 327.828 75.12C327.53 75.2693 327.295 75.472 327.124 75.728C326.954 75.984 326.868 76.304 326.868 76.688C326.868 77.4347 327.114 77.9573 327.604 78.256C328.116 78.5333 328.81 78.672 329.684 78.672ZM329.3 64.72C330.708 64.72 331.882 64.88 332.82 65.2C333.759 65.52 334.506 65.9787 335.06 66.576C335.636 67.1733 336.042 67.8987 336.276 68.752C336.511 69.6053 336.628 70.5547 336.628 71.6V81.52C335.946 81.6693 334.996 81.84 333.78 82.032C332.564 82.2453 331.092 82.352 329.364 82.352C328.276 82.352 327.284 82.256 326.388 82.064C325.514 81.872 324.756 81.5627 324.116 81.136C323.476 80.688 322.986 80.112 322.644 79.408C322.303 78.704 322.132 77.84 322.132 76.816C322.132 75.8347 322.324 75.0027 322.708 74.32C323.114 73.6373 323.647 73.0933 324.308 72.688C324.97 72.2827 325.727 71.9947 326.58 71.824C327.434 71.632 328.319 71.536 329.236 71.536C329.855 71.536 330.399 71.568 330.868 71.632C331.359 71.6747 331.754 71.7387 332.052 71.824V71.376C332.052 70.5653 331.807 69.9147 331.316 69.424C330.826 68.9333 329.972 68.688 328.756 68.688C327.946 68.688 327.146 68.752 326.356 68.88C325.567 68.9867 324.884 69.1467 324.308 69.36L323.7 65.52C323.978 65.4347 324.319 65.3493 324.724 65.264C325.151 65.1573 325.61 65.072 326.1 65.008C326.591 64.9227 327.103 64.8587 327.636 64.816C328.191 64.752 328.746 64.72 329.3 64.72ZM348.748 59.824C349.132 60.528 349.569 61.4027 350.06 62.448C350.572 63.472 351.095 64.592 351.628 65.808C352.183 67.0027 352.727 68.2293 353.26 69.488C353.793 70.7467 354.295 71.9307 354.764 73.04C355.233 71.9307 355.735 70.7467 356.268 69.488C356.801 68.2293 357.335 67.0027 357.868 65.808C358.423 64.592 358.945 63.472 359.436 62.448C359.948 61.4027 360.396 60.528 360.78 59.824H365.324C365.537 61.296 365.729 62.9493 365.9 64.784C366.092 66.5973 366.252 68.496 366.38 70.48C366.529 72.4427 366.657 74.416 366.764 76.4C366.892 78.384 366.999 80.2507 367.084 82H362.22C362.156 79.8453 362.071 77.4987 361.964 74.96C361.857 72.4213 361.697 69.8613 361.484 67.28C361.1 68.176 360.673 69.168 360.204 70.256C359.735 71.344 359.265 72.432 358.796 73.52C358.348 74.608 357.911 75.6533 357.484 76.656C357.057 77.6373 356.695 78.48 356.396 79.184H352.908C352.609 78.48 352.247 77.6373 351.82 76.656C351.393 75.6533 350.945 74.608 350.476 73.52C350.028 72.432 349.569 71.344 349.1 70.256C348.631 69.168 348.204 68.176 347.82 67.28C347.607 69.8613 347.447 72.4213 347.34 74.96C347.233 77.4987 347.148 79.8453 347.084 82H342.22C342.305 80.2507 342.401 78.384 342.508 76.4C342.636 74.416 342.764 72.4427 342.892 70.48C343.041 68.496 343.201 66.5973 343.372 64.784C343.564 62.9493 343.767 61.296 343.98 59.824H348.748ZM379.291 78.672C379.76 78.672 380.208 78.6613 380.635 78.64C381.061 78.6187 381.403 78.5867 381.659 78.544V74.928C381.467 74.8853 381.179 74.8427 380.795 74.8C380.411 74.7573 380.059 74.736 379.739 74.736C379.291 74.736 378.864 74.768 378.459 74.832C378.075 74.8747 377.733 74.9707 377.435 75.12C377.136 75.2693 376.901 75.472 376.731 75.728C376.56 75.984 376.475 76.304 376.475 76.688C376.475 77.4347 376.72 77.9573 377.211 78.256C377.723 78.5333 378.416 78.672 379.291 78.672ZM378.907 64.72C380.315 64.72 381.488 64.88 382.427 65.2C383.365 65.52 384.112 65.9787 384.667 66.576C385.243 67.1733 385.648 67.8987 385.883 68.752C386.117 69.6053 386.235 70.5547 386.235 71.6V81.52C385.552 81.6693 384.603 81.84 383.387 82.032C382.171 82.2453 380.699 82.352 378.971 82.352C377.883 82.352 376.891 82.256 375.995 82.064C375.12 81.872 374.363 81.5627 373.723 81.136C373.083 80.688 372.592 80.112 372.251 79.408C371.909 78.704 371.739 77.84 371.739 76.816C371.739 75.8347 371.931 75.0027 372.315 74.32C372.72 73.6373 373.253 73.0933 373.915 72.688C374.576 72.2827 375.333 71.9947 376.187 71.824C377.04 71.632 377.925 71.536 378.843 71.536C379.461 71.536 380.005 71.568 380.475 71.632C380.965 71.6747 381.36 71.7387 381.659 71.824V71.376C381.659 70.5653 381.413 69.9147 380.923 69.424C380.432 68.9333 379.579 68.688 378.363 68.688C377.552 68.688 376.752 68.752 375.963 68.88C375.173 68.9867 374.491 69.1467 373.915 69.36L373.307 65.52C373.584 65.4347 373.925 65.3493 374.331 65.264C374.757 65.1573 375.216 65.072 375.707 65.008C376.197 64.9227 376.709 64.8587 377.243 64.816C377.797 64.752 378.352 64.72 378.907 64.72ZM392.146 65.744C392.957 65.5093 394.002 65.296 395.282 65.104C396.562 64.8907 397.906 64.784 399.314 64.784C400.744 64.784 401.928 64.976 402.866 65.36C403.826 65.7227 404.584 66.2453 405.138 66.928C405.693 67.6107 406.088 68.4213 406.322 69.36C406.557 70.2987 406.674 71.344 406.674 72.496V82H401.906V73.072C401.906 71.536 401.704 70.448 401.298 69.808C400.893 69.168 400.136 68.848 399.026 68.848C398.685 68.848 398.322 68.8693 397.938 68.912C397.554 68.9333 397.213 68.9653 396.914 69.008V82H392.146V65.744ZM418.958 78.192C419.662 78.192 420.238 78.1387 420.686 78.032C421.155 77.904 421.529 77.744 421.806 77.552C422.083 77.3387 422.275 77.0933 422.382 76.816C422.489 76.5387 422.542 76.2293 422.542 75.888C422.542 75.1627 422.201 74.5653 421.518 74.096C420.835 73.6053 419.662 73.0827 417.998 72.528C417.273 72.272 416.547 71.984 415.822 71.664C415.097 71.3227 414.446 70.9067 413.87 70.416C413.294 69.904 412.825 69.296 412.462 68.592C412.099 67.8667 411.918 66.992 411.918 65.968C411.918 64.944 412.11 64.0267 412.494 63.216C412.878 62.384 413.422 61.68 414.126 61.104C414.83 60.528 415.683 60.0907 416.686 59.792C417.689 59.472 418.819 59.312 420.078 59.312C421.571 59.312 422.862 59.472 423.95 59.792C425.038 60.112 425.934 60.464 426.638 60.848L425.198 64.784C424.579 64.464 423.886 64.1867 423.118 63.952C422.371 63.696 421.465 63.568 420.398 63.568C419.203 63.568 418.339 63.7387 417.806 64.08C417.294 64.4 417.038 64.9013 417.038 65.584C417.038 65.9893 417.134 66.3307 417.326 66.608C417.518 66.8853 417.785 67.1413 418.126 67.376C418.489 67.5893 418.894 67.792 419.342 67.984C419.811 68.1547 420.323 68.336 420.878 68.528C422.03 68.9547 423.033 69.3813 423.886 69.808C424.739 70.2133 425.443 70.6933 425.998 71.248C426.574 71.8027 427.001 72.4533 427.278 73.2C427.555 73.9467 427.694 74.8533 427.694 75.92C427.694 77.9893 426.969 79.6 425.518 80.752C424.067 81.8827 421.881 82.448 418.958 82.448C417.977 82.448 417.091 82.384 416.302 82.256C415.513 82.1493 414.809 82.0107 414.19 81.84C413.593 81.6693 413.07 81.488 412.622 81.296C412.195 81.104 411.833 80.9227 411.534 80.752L412.942 76.784C413.603 77.1467 414.414 77.4773 415.374 77.776C416.355 78.0533 417.55 78.192 418.958 78.192Z" fill="#F8FFFF"/>
<g clip-path="url(#clip0_132_92)">
<path d="M155.083 79.0387C149.641 80.278 144.563 81.987 139.85 84.1658C127.748 89.7426 120.314 97.2383 117.549 106.653C115.38 113.989 115.38 121.744 117.549 129.92C119.429 137.016 122.571 143.382 126.974 149.019C127.925 150.278 128.102 151.187 127.505 151.747C126.863 152.347 125.691 151.937 123.987 150.518C119.739 146.96 116.133 141.613 113.168 134.477C110.137 127.201 108.765 120.425 109.053 114.149C99.5392 119.885 88.5764 123.123 76.1644 123.863C66.1419 124.463 56.3738 123.443 46.8602 120.805L44.9353 120.925L44.0725 120.865C34.0278 119.266 25.0894 114.648 17.2573 107.013C8.84989 98.8174 4.14838 89.2528 3.15277 78.3191C7.59984 80.0581 11.2504 80.6078 14.1045 79.9682C16.6267 79.3685 18.098 77.9893 18.5184 75.8305C18.7839 74.4114 18.5516 73.1321 17.8215 71.9927C17.2241 71.0533 16.4719 70.4236 15.5647 70.1038C12.7549 69.1044 10.3101 68.1549 8.2304 67.2554C7.61091 66.9556 7.27903 66.5558 7.23478 66.0561C7.16841 65.6164 7.32328 65.1666 7.6994 64.7069C10.9517 57.8908 16.859 52.284 25.4213 47.8865C34.1827 43.3891 43.7848 41.2104 54.2277 41.3503C54.6702 40.051 55.4888 38.9217 56.6836 37.9622C57.8783 37.0228 58.9956 36.583 60.0355 36.643C61.7612 36.7429 63.3763 37.6724 64.8808 39.4314C65.6551 40.2909 66.2415 41.1504 66.6397 42.0099C78.7198 43.8688 89.5499 48.896 99.1299 57.0913C109.75 66.1461 116.409 77.3097 119.109 90.5821C125.967 85.1452 134.408 80.9676 144.43 78.0493C152.97 75.5707 160.703 74.4513 167.628 74.6912C171.279 74.8311 173.06 75.2709 172.971 76.0104C172.905 76.73 171.268 77.1398 168.059 77.2397C164.143 77.3597 159.818 77.9593 155.083 79.0387Z" fill="#84979B"/>
<path d="M107.991 43.1193C102.438 48.1964 97.902 51.7443 94.3841 53.7632C92.6141 52.304 90.1362 50.7249 86.9502 49.0259C80.5562 45.6079 73.786 43.2692 66.6397 42.0099C66.5291 41.5902 66.2525 41.0605 65.81 40.4208C64.925 39.1815 63.6418 38.0722 61.9603 37.0927C61.3408 24.36 61.0864 17.1042 61.197 15.3252C61.3076 13.6861 61.551 12.6867 61.9271 12.3269C62.5024 11.8472 63.4759 12.3469 64.8476 13.8261C66.1087 15.2053 67.8676 17.7538 70.1243 21.4717L73.1444 26.6587C77.0162 22.1013 81.4854 17.3041 86.552 12.2669C91.7292 7.14987 95.5014 3.7818 97.8688 2.16273C99.152 1.28323 99.86 0.83349 99.9927 0.813501C100.745 0.713558 101.154 1.63303 101.221 3.57192C101.353 6.59019 100.491 16.3246 98.6321 32.7752L109.385 31.9657L114.661 31.9057C116.077 31.9057 116.94 32.0956 117.25 32.4754C117.604 32.9351 117.316 33.7147 116.387 34.814C115.015 36.4531 112.217 39.2215 107.991 43.1193Z" fill="#4C4141"/>
<path d="M64.0843 123.713L72.8789 124.043C75.5338 126.382 78.9521 130.449 83.1337 136.246C87.094 141.743 90.0256 146.35 91.9283 150.068C92.415 151.027 92.4261 151.587 91.9615 151.747C91.5854 151.887 90.8773 151.777 89.8375 151.417C88.687 151.037 85.9546 149.948 81.6403 148.149C76.9941 146.21 74.0957 144.921 72.9453 144.281L69.9916 148.479L67.1707 152.677C65.9096 154.495 64.7038 154.685 63.5533 153.246L54.4269 140.054L47.5571 146.65L43.0105 139.574C39.7803 141.013 37.2581 142.053 35.4438 142.692C33.3199 143.412 32.6229 142.802 33.353 140.863C34.1495 138.705 35.7978 135.436 38.2979 131.059C40.7095 126.841 42.8003 123.523 44.5703 121.105L47.0261 120.775C51.6059 122.234 57.292 123.213 64.0843 123.713Z" fill="#4C4141"/>
<path d="M51.7387 59.37C54.1945 61.7886 55.3561 64.8168 55.2233 68.4547C55.1127 71.573 53.7299 74.2414 51.0749 76.4602C48.42 78.6989 45.4663 79.6883 42.214 79.4285C38.4306 79.1486 35.3774 77.8494 33.0543 75.5307C30.687 73.212 29.6361 70.3836 29.9015 67.0456C30.167 63.8074 31.7158 61.059 34.5477 58.8003C37.2027 56.6815 40.0457 55.6721 43.0768 55.772C46.5283 55.872 49.4156 57.0713 51.7387 59.37Z" fill="white"/>
<path d="M9.19278 96.3388C6.93606 98.0378 6.63738 103.395 8.29673 112.41C9.20384 117.267 10.7305 123.703 12.8766 131.719C14.3147 137.975 14.3589 143.382 13.0093 147.939C11.8146 151.937 9.60209 155.135 6.37188 157.534C4.91165 158.633 4.04878 158.883 3.78328 158.283C3.51779 157.684 3.97135 156.714 5.14396 155.375C7.90955 152.237 9.5689 148.749 10.122 144.911C10.6309 141.373 10.2326 137.056 8.92729 131.958C6.64844 123.663 5.09971 117.727 4.28109 114.149C2.95361 108.212 2.53324 103.495 3.01998 99.9967C3.28548 98.0778 3.78328 96.3888 4.5134 94.9296C5.06652 93.8302 5.82982 92.7109 6.80331 91.5715L9.19278 96.3388Z" fill="#0B0B0C"/>
<path d="M17.6223 71.9028C18.6401 73.342 18.9166 74.7911 18.452 76.2503C17.9432 77.7295 17.025 78.8089 15.6975 79.4885C14.6134 80.0282 13.3412 80.288 11.881 80.268C8.69501 80.208 6.11748 79.6783 4.14838 78.6789C2.1129 77.6595 1.06198 76.2903 0.995603 74.5713C0.951354 73.6918 1.2611 72.8822 1.92484 72.1427L2.92046 71.3031C1.50447 69.3043 1.38279 67.5553 2.5554 66.0561C3.70588 64.597 5.42055 64.1472 7.6994 64.7069L7.4339 65.2766C7.27903 65.6964 7.27903 66.0262 7.4339 66.266C7.81002 66.8657 8.6397 67.4354 9.92294 67.9751C10.8743 68.3948 12.5226 68.9645 14.8678 69.6841C15.8413 69.9839 16.7595 70.7235 17.6223 71.9028Z" fill="#EE848C"/>
<path d="M144.928 113.159C143.357 115.318 142.406 118.546 142.074 122.844C141.676 127.841 141.178 131.069 140.581 132.528C139.74 134.607 137.638 137.155 134.275 140.174L128.334 145.541C127.649 146.44 127.173 147.29 126.907 148.089C126.775 148.469 126.708 148.769 126.708 148.989C121.62 142.452 118.235 134.837 116.553 126.142C114.827 117.067 115.524 109.401 118.644 103.145C122.936 94.5298 130.967 87.8337 142.738 83.0564C151.919 79.3385 161.101 77.4096 170.283 77.2697L168.624 78.2891C167.407 79.1886 166.533 80.1581 166.002 81.1975C164.918 83.2763 163.966 86.0447 163.148 89.5027C162.373 92.6809 161.433 95.1895 160.327 97.0284C158.446 100.127 156.079 102.745 153.225 104.884C149.95 107.323 147.185 110.081 144.928 113.159Z" fill="white"/>
<path d="M116.321 110.94C118.378 99.367 126.067 90.5421 139.386 84.4656C148.612 80.268 158.944 77.8394 170.383 77.1797C168.745 77.7994 167.197 79.5684 165.736 82.4867C165.006 83.9459 164.442 85.3351 164.044 86.6543C154.353 86.8742 145.393 88.7131 137.162 92.1712C126.808 96.5287 119.861 102.785 116.321 110.94Z" fill="#DBDCDC"/>
<path d="M64.6484 123.683L73.2107 124.043L78.8525 130.609C77.525 132.068 75.1024 133.168 71.5846 133.907C68.1331 134.627 64.394 134.857 60.3673 134.597C56.0751 134.317 52.2807 133.508 48.9841 132.168C45.2672 130.669 42.6565 128.67 41.152 126.172L44.5702 121.015L47.1257 120.865C52.1037 122.224 57.9447 123.163 64.6484 123.683Z" fill="#4C4141"/>
<path d="M114.23 100.686C117.35 99.587 119.053 99.1072 119.341 99.2472C119.894 99.527 119.518 101.286 118.212 104.524C115.491 111.2 114.894 118.376 116.42 126.052C117.903 133.468 121.277 140.973 126.542 148.569C128.025 150.668 128.268 151.787 127.273 151.927C126.321 152.047 124.994 151.297 123.29 149.678C120.148 146.64 117.504 143.182 115.358 139.304C111.265 131.868 109.163 123.423 109.053 113.969C98.8976 121.145 85.5232 124.453 68.9296 123.893C60.655 123.593 53.387 122.584 47.1257 120.865L45.6655 121.075C42.6344 121.095 38.9174 120.145 34.5146 118.226C29.7135 116.147 25.189 113.359 20.9411 109.861C10.0336 100.906 4.10413 90.3223 3.15277 78.1093C5.54224 79.4085 7.89853 80.0581 10.2216 80.0581C14.6908 86.7743 21.107 92.3411 29.4701 96.7586C37.2138 100.856 46.1633 103.745 56.3185 105.424C65.987 107.023 75.921 107.402 86.1205 106.563C96.2537 105.723 105.623 103.765 114.23 100.686Z" fill="#657D82"/>
<path d="M60.7656 13.916C60.8541 12.7766 61.3076 12.097 62.1262 11.8771C62.9891 11.6373 63.8409 11.9971 64.6816 12.9565C65.6772 14.0759 67.1596 16.0747 69.1287 18.9531C71.5182 22.4111 73.5315 25.6093 75.1688 28.5476C75.8989 29.8468 76.0537 30.5964 75.6334 30.7963C75.213 30.9962 74.6599 30.4665 73.974 29.2072C72.2925 26.1889 70.3124 22.9608 68.0335 19.5228C66.0423 16.5045 64.5931 14.4756 63.686 13.4362C62.5577 12.177 61.9382 12.3469 61.8275 13.9459C61.7169 15.4651 61.7501 18.7032 61.9271 23.6604C62.1041 29.1772 62.3917 33.7346 62.79 37.3326L62.0267 37.2426C61.5178 37.0627 61.2634 36.9328 61.2634 36.8528C60.8872 33.3548 60.6771 28.8574 60.6328 23.3606C60.5886 18.8032 60.6328 15.655 60.7656 13.916Z" fill="#0D131A"/>
<path d="M98.4661 0.99338C99.3511 0.333758 100.081 0.133872 100.656 0.393724C101.21 0.613598 101.508 1.1333 101.553 1.95283C101.73 4.13158 101.508 9.3486 100.889 17.6039C100.247 26.139 99.5945 32.1655 98.9308 35.6835C98.6653 37.0228 98.3113 37.7224 97.8688 37.7823C97.4263 37.8423 97.3046 37.2326 97.5037 35.9534C98.1011 32.3754 98.7759 26.5388 99.5281 18.4434C100.325 9.78835 100.634 4.33147 100.457 2.07276C100.369 1.23324 99.9928 1.06334 99.329 1.56305C96.0324 4.00166 91.8287 7.80948 86.7179 12.9865C81.6071 18.1436 77.2928 22.9308 73.7749 27.3483C73.6864 27.4282 73.5094 27.2683 73.244 26.8686C72.9785 26.4688 72.8789 26.2189 72.9453 26.119C76.4188 21.7615 80.7221 17.0742 85.855 12.057C90.7446 7.27978 94.9483 3.59189 98.4661 0.99338Z" fill="#0D131A"/>
<path d="M115.69 31.4559C116.885 31.5359 117.604 31.8757 117.847 32.4753C118.113 33.135 117.781 34.0045 116.852 35.0838C113.931 38.5419 110.314 42.1398 106 45.8777C101.84 49.4756 98.1453 52.254 94.9151 54.2129L94.2845 53.7931C93.9305 53.4933 93.7978 53.3134 93.8863 53.2534C97.0944 51.2546 100.756 48.5261 104.871 45.0681C109.451 41.2103 113.157 37.6124 115.989 34.2743C116.631 33.5147 116.918 33.045 116.852 32.8651C116.808 32.7052 116.398 32.5953 115.624 32.5353C113.61 32.3954 111.254 32.4054 108.555 32.5653L98.632 33.4048C98.4993 33.4048 98.4108 33.1949 98.3665 32.7752C98.3444 32.3554 98.3887 32.1355 98.4993 32.1155C105.469 31.3959 111.199 31.1761 115.69 31.4559Z" fill="#0D131A"/>
<path d="M120.104 93.6404C120.259 94.7797 120.126 95.4393 119.706 95.6192C119.308 95.7991 119.042 95.3494 118.909 94.27C116.985 79.7983 110.115 67.5653 98.3002 57.571C93.4549 53.4734 88.1228 50.0753 82.304 47.3768C76.9941 44.9382 71.8612 43.3192 66.9052 42.5196C66.7946 42.4996 66.6618 42.2698 66.507 41.83C66.3521 41.4103 66.33 41.2104 66.4406 41.2304C71.6399 41.9699 76.983 43.559 82.47 45.9976C88.4879 48.6761 93.9859 52.0742 98.964 56.1918C111.066 66.246 118.113 78.7289 120.104 93.6404Z" fill="#0D131A"/>
<path d="M16.9586 71.9328C16.2949 71.0733 15.4099 70.4736 14.3036 70.1338C10.3875 68.8945 7.98701 67.7851 7.10202 66.8057C6.70378 66.346 6.68165 65.7763 7.03565 65.0967C4.88955 64.9368 3.47357 65.5864 2.7877 67.0456C2.19033 68.3448 2.33414 69.4942 3.21913 70.4936C4.01562 71.4131 5.24355 72.1826 6.9029 72.8023C8.49588 73.4219 10.2769 73.8317 12.246 74.0316C13.5293 74.1515 14.1045 74.3214 13.9718 74.5413L11.6818 74.6612C7.63302 74.2614 4.71255 73.292 2.92045 71.7529C1.96908 72.4924 1.52659 73.4719 1.59296 74.6912C1.68146 76.0704 2.44477 77.1598 3.88287 77.9593C5.32098 78.7788 7.14627 79.3185 9.35875 79.5784C11.3057 79.8182 12.8323 79.7983 13.9386 79.5184C15.1554 79.1986 16.1068 78.6489 16.7927 77.8694C17.5007 77.0898 17.8768 76.1304 17.921 74.991C17.9874 73.8317 17.6666 72.8123 16.9586 71.9328ZM55.2565 40.7206C56.5397 40.7006 57.1261 40.8706 57.0154 41.2303C56.9269 41.5901 56.2189 41.78 54.8915 41.8C43.1653 41.9799 32.9437 44.4485 24.2266 49.2058C16.5493 53.4234 11.2172 58.6704 8.23039 64.9468C7.94276 65.5664 7.81002 65.9462 7.83214 66.0861C7.83214 66.226 8.03126 66.4459 8.42951 66.7457C8.89413 67.0855 9.67956 67.4653 10.7858 67.8851L14.7351 69.1743C16.328 69.6741 17.5228 70.5136 18.3193 71.6929C18.9609 72.6723 19.2817 73.7517 19.2817 74.931C19.2817 76.1703 18.8281 77.3097 17.921 78.3491C16.9475 79.4285 15.7196 80.1181 14.2373 80.4179C12.8434 80.6778 11.1287 80.6877 9.09325 80.4479C6.70378 80.168 4.78999 79.6184 3.35188 78.7988C1.55978 77.7794 0.553102 76.4502 0.331854 74.8111C0.110607 73.212 0.752224 71.9827 2.25671 71.1232C0.862848 69.5441 0.730099 67.8851 1.85846 66.1461C2.36733 65.3865 3.10851 64.8168 4.082 64.4371C5.05549 64.0773 6.11747 63.9673 7.26796 64.1072C11.6265 55.852 18.6401 49.7055 28.3086 45.6678C36.3399 42.3097 45.3225 40.6607 55.2565 40.7206Z" fill="#0D131A"/>
<path d="M60.0354 36.1333C61.8939 36.0533 63.6971 37.0927 65.4449 39.2515C67.3034 41.5102 68.83 44.6784 70.0248 48.756C72.8789 58.5704 73.1333 70.6335 70.7881 84.9453C68.7968 97.0584 64.6706 106.613 58.4093 113.609C55.8871 116.447 53.2542 118.546 50.5107 119.905C47.9885 121.165 45.7539 121.634 43.8069 121.314C33.9393 119.695 25.1005 115.198 17.2904 107.822C8.46267 99.487 3.59522 89.5727 2.68811 78.0792L3.28548 78.0493C3.70585 78.1492 3.91603 78.2591 3.91603 78.3791C4.7789 89.2129 9.73484 98.8074 18.7839 107.163C22.5893 110.661 26.793 113.579 31.395 115.918C35.7535 118.156 39.9462 119.605 43.9729 120.265C45.765 120.565 47.8447 120.075 50.2121 118.796C52.7785 117.417 55.2565 115.338 57.646 112.56C63.5975 105.643 67.5247 96.3788 69.4274 84.7654C71.7284 70.8933 71.5514 59.1201 68.8964 49.4456C67.8344 45.5279 66.4627 42.4596 64.7812 40.2409C63.2103 38.1621 61.6395 37.1527 60.0686 37.2126C58.6084 37.2726 57.2809 38.0022 56.0862 39.4014C55.4888 40.101 55.0352 40.8006 54.7255 41.5002L53.8626 41.5302C53.3538 41.4502 53.1104 41.3603 53.1325 41.2603C53.6193 40.2409 54.3715 39.2515 55.3892 38.292C56.8495 36.9128 58.3982 36.1932 60.0354 36.1333Z" fill="#0D131A"/>
<path d="M111.641 111.24C112.526 110.521 113.024 110.341 113.135 110.701C113.245 111.06 112.836 111.63 111.907 112.41C103.942 119.126 93.1893 123.074 79.649 124.253C68.0999 125.272 56.9269 124.243 46.13 121.165C46.0194 121.125 46.1743 120.975 46.5946 120.715C46.9929 120.475 47.2695 120.375 47.4243 120.415C58.7522 123.233 70.1022 123.983 81.4743 122.664C94.0411 121.225 104.097 117.417 111.641 111.24Z" fill="#0D131A"/>
<path d="M108.356 114.538C108.356 114.438 108.577 114.249 109.02 113.969C109.462 113.689 109.683 113.609 109.683 113.729C109.374 120.265 110.856 127.321 114.13 134.897C117.272 142.113 120.867 147.28 124.916 150.398C126.089 151.297 126.841 151.617 127.173 151.357C127.505 151.097 127.284 150.458 126.509 149.438C121.531 142.822 118.146 135.576 116.354 127.701C114.186 118.206 114.916 109.551 118.544 101.736C121.465 95.4593 127.549 89.9424 136.797 85.1852C146.598 80.148 157.473 77.3296 169.42 76.73C171.411 76.63 172.429 76.4002 172.473 76.0404C172.54 75.6806 171.61 75.4507 169.686 75.3508C160.681 74.911 151.577 76.1703 142.373 79.1286C133.279 82.0469 125.591 86.1346 119.308 91.3916C119.219 91.4715 119.142 91.2617 119.075 90.762C119.009 90.2622 119.009 89.9924 119.075 89.9524C125.403 84.7754 133.158 80.7777 142.339 77.9593C151.499 75.1609 160.637 73.9716 169.752 74.3913C172.584 74.5313 173.856 75.1109 173.569 76.1303C173.281 77.1298 171.92 77.6894 169.487 77.8094C157.384 78.429 146.543 81.2674 136.963 86.3245C128.29 90.9019 122.582 96.1389 119.839 102.035C116.254 109.751 115.491 118.276 117.549 127.611C119.252 135.406 122.538 142.532 127.405 148.989C128.534 150.488 128.655 151.507 127.77 152.047C126.907 152.607 125.657 152.257 124.02 150.997C119.927 147.839 116.288 142.722 113.102 135.646C109.739 128.151 108.157 121.115 108.356 114.538Z" fill="#0D131A"/>
<path d="M159.796 99.427C158.645 101.046 156.245 103.265 152.594 106.083C149.32 108.602 146.919 111.14 145.393 113.699C143.711 116.497 142.76 119.805 142.539 123.623C142.251 128.72 141.565 132.268 140.481 134.267C139.508 136.066 136.974 138.705 132.881 142.183C131.067 143.722 129.762 144.961 128.965 145.9C127.815 147.26 127.273 148.469 127.339 149.528C127.339 149.648 127.162 149.488 126.808 149.049C126.454 148.629 126.288 148.359 126.31 148.239C126.421 146.96 127.018 145.781 128.102 144.701L132.118 141.433C135.702 138.495 138.103 135.856 139.319 133.518C140.536 131.199 141.266 127.891 141.51 123.593C141.753 119.396 142.539 116.088 143.866 113.669C145.26 111.15 147.871 108.412 151.698 105.454C154.973 102.935 157.484 100.307 159.232 97.5681C160.758 95.1495 161.997 92.1112 162.949 88.4533C163.834 84.9753 164.619 82.6167 165.305 81.3774C166.323 79.4785 167.894 78.0493 170.018 77.0898L171.445 76.9999L172.374 77.1198C170.073 77.7994 168.203 79.3186 166.765 81.6772C165.681 83.4162 164.752 85.8248 163.977 88.9031C162.738 93.7403 161.345 97.2483 159.796 99.427Z" fill="#0D131A"/>
<path d="M120.735 99.3671C120.624 99.427 120.635 99.2371 120.768 98.7974C120.901 98.3377 121.044 98.0678 121.199 97.9879C125.58 95.6292 132.151 94.24 140.912 93.8202C148.059 93.4605 154.884 93.7403 161.389 94.6598C161.522 94.6797 161.566 94.8197 161.522 95.0795C161.477 95.3594 161.389 95.4893 161.256 95.4693C155.504 94.6498 148.601 94.4899 140.547 94.9896C130.945 95.5692 124.341 97.0284 120.735 99.3671Z" fill="#0D131A"/>
<path d="M116.686 108.392C116.664 108.252 116.785 108.012 117.051 107.672C117.316 107.352 117.46 107.253 117.482 107.372C118.544 111.95 121.62 117.427 126.708 123.803C131.045 129.26 135.005 133.288 138.589 135.886C138.7 135.946 138.656 136.086 138.457 136.306L138.025 136.516C133.91 133.518 129.939 129.72 126.111 125.122C121.288 119.306 118.146 113.729 116.686 108.392Z" fill="#0D131A"/>
<path d="M6.30556 90.9119C6.39406 90.8319 6.50468 91.0118 6.63743 91.4516L6.77018 92.2611C5.0002 94.3799 3.90503 96.9684 3.48466 100.027C2.99791 103.385 3.40722 107.992 4.71258 113.849L9.49152 132.018C10.9296 137.595 11.3058 142.203 10.6199 145.84C9.97827 149.238 8.2636 152.507 5.47588 155.645C4.45815 156.804 4.03778 157.564 4.21478 157.924C4.36965 158.283 5.0002 158.053 6.10644 157.234C9.02691 155.055 11.0956 152.207 12.3124 148.689C13.9054 144.051 13.9497 138.425 12.4452 131.808C10.0336 122.934 8.58441 117.197 8.09767 114.598C6.06219 104.144 6.32769 97.9479 8.89416 96.009C9.00478 95.949 9.2039 96.0689 9.49152 96.3688C9.75702 96.6486 9.84552 96.8285 9.75702 96.9085C7.52242 98.6075 7.38967 104.504 9.35878 114.598C9.69065 116.357 11.1066 122.084 13.6067 131.778C15.244 138.854 15.1555 144.751 13.3412 149.468C12.058 152.806 9.83446 155.645 6.67062 157.983C5.01127 159.223 3.92715 159.443 3.41828 158.643C2.88729 157.824 3.2966 156.654 4.64621 155.135C7.34543 152.097 8.96053 148.649 9.49152 144.791C10.0004 141.233 9.61321 136.986 8.32998 132.048L4.21478 117.447C2.22355 109.331 1.48237 103.495 1.99124 99.9367C2.27886 97.9579 2.86517 96.1389 3.75016 94.4798C4.39177 93.3205 5.24358 92.1312 6.30556 90.9119Z" fill="#0D131A"/>
<path d="M43.9397 120.865L44.7362 120.805C45.2008 120.865 45.3999 120.935 45.3335 121.015C44.1609 122.494 42.3578 125.272 39.924 129.35C36.8487 134.467 34.769 138.535 33.6849 141.553C33.4194 142.332 33.7844 142.582 34.78 142.303C35.6872 142.043 37.3686 141.363 39.8245 140.264C39.9351 140.224 40.0568 140.414 40.1895 140.833C40.3002 141.273 40.3002 141.513 40.1895 141.553L35.0455 143.202C34.1827 143.442 33.4968 143.442 32.9879 143.202C32.3242 142.902 32.1693 142.263 32.5233 141.283C33.9614 137.305 35.9969 133.118 38.6297 128.72C40.5767 125.442 42.3467 122.824 43.9397 120.865Z" fill="#0D131A"/>
<path d="M72.016 124.103C71.9718 124.063 72.2041 124.013 72.7129 123.953L73.609 123.983C76.9277 127.041 80.6336 131.469 84.7267 137.265C88.3551 142.382 90.9105 146.52 92.3929 149.678C92.8796 150.678 92.9792 151.407 92.6916 151.867C92.4039 152.347 91.7181 152.417 90.634 152.077C88.5985 151.457 86.2422 150.648 83.5651 149.648C79.1844 148.009 75.7108 146.45 73.1444 144.971L67.3366 153.096C65.9649 154.935 64.5932 155.085 63.2214 153.546C62.3586 152.547 61.02 150.768 59.2058 148.209C57.0154 145.151 55.4225 142.702 54.4268 140.863L47.9885 147.13C47.9 147.21 47.7452 147.11 47.5239 146.83C47.3027 146.55 47.2363 146.37 47.3248 146.29L53.5972 139.994C53.9954 139.574 54.3605 139.384 54.6923 139.424C55.0021 139.464 55.3229 139.754 55.6548 140.294L60.2346 147.46C62.2037 150.418 63.4869 152.237 64.0843 152.916C64.5932 153.476 64.9803 153.746 65.2458 153.726C65.5556 153.706 65.9428 153.316 66.4074 152.557L72.1156 144.191C72.3811 143.792 72.6134 143.582 72.8125 143.562C73.0116 143.542 73.3767 143.692 73.9077 144.012C76.1423 145.331 79.4389 146.85 83.7974 148.569C87.1383 149.908 89.5167 150.778 90.9327 151.177L91.7623 151.237L91.2977 149.978C90.1472 147.559 87.5033 143.462 83.366 137.685C78.6534 131.129 74.8701 126.601 72.016 124.103Z" fill="#0D131A"/>
<path d="M8.99371 80.1181C8.97158 79.9981 9.18177 79.9482 9.62426 79.9682C10.0446 80.0081 10.2659 80.0781 10.288 80.178C11.6376 88.6532 16.4608 96.3888 24.7576 103.385C32.8552 110.201 42.4242 114.838 53.4644 117.297C53.5751 117.337 53.4976 117.467 53.2321 117.687C52.9666 117.926 52.7675 118.026 52.6348 117.986C40.9308 115.388 31.0963 110.641 23.1314 103.745C15.1223 96.8085 10.4097 88.933 8.99371 80.1181Z" fill="#0D131A"/>
<path d="M25.4213 113.519C25.2886 113.519 25.2001 113.399 25.1558 113.159C25.1116 112.919 25.1558 112.789 25.2886 112.769C26.5054 112.609 27.8661 112.24 29.3706 111.66C30.7644 111.12 31.9149 110.551 32.822 109.951C32.9105 109.891 33.0986 109.971 33.3862 110.191C33.6517 110.411 33.7402 110.561 33.6517 110.641C32.5897 111.38 31.3286 112.01 29.8684 112.53C28.3197 113.089 26.8373 113.419 25.4213 113.519Z" fill="#0D131A"/>
<path d="M52.0042 118.676C51.8936 118.656 52.0042 118.486 52.3361 118.166C52.6679 117.846 52.8781 117.697 52.9666 117.717C57.5243 118.836 60.124 119.336 60.7656 119.216C61.3408 119.076 62.7679 118.446 65.0467 117.327C67.3698 116.167 68.5867 115.458 68.6973 115.198L68.5646 111.18L68.3986 107.792L68.996 107.972L69.5934 108.452L69.7261 112.05C69.7482 114.189 69.704 115.388 69.5934 115.648C69.4164 115.988 68.0668 116.827 65.5445 118.166C63.0887 119.466 61.6506 120.145 61.2302 120.205C60.478 120.365 57.4026 119.855 52.0042 118.676Z" fill="#0D131A"/>
<path d="M77.7573 45.248L79.6158 45.5479C80.4344 46.1875 81.3747 47.1669 82.4367 48.4862C83.5208 49.8254 84.0297 50.655 83.9633 50.9748C83.897 51.2546 83.2885 51.8942 82.138 52.8937L78.9853 55.3223C83.2332 61.4388 85.3572 64.7869 85.3572 65.3665C85.3572 65.7463 84.7488 66.8357 83.5319 68.6347C82.2929 70.4736 81.0539 72.0927 79.815 73.4919L82.8682 76.76L81.6071 76.5201L78.6202 73.8517L78.5538 73.5818V73.312L82.2376 68.5147C83.5208 66.7557 84.2067 65.7063 84.2952 65.3665C84.0961 64.8069 81.8062 61.4188 77.4255 55.2023L77.9565 54.8126C81.2088 52.4939 82.846 51.1846 82.8682 50.8848C82.8903 50.6849 82.1823 49.7655 80.7442 48.1264C79.2618 46.4274 78.2662 45.4679 77.7573 45.248Z" fill="#0D131A"/>
<path d="M62.7568 106.653L63.2546 105.753L67.934 107.372L68.2658 107.882C68.3765 108.182 68.3765 108.312 68.2658 108.272L62.7568 106.653Z" fill="#0D131A"/>
<path d="M71.1863 73.4919C71.0536 73.4719 70.9982 73.272 71.0204 72.8922C71.0204 72.5124 71.0867 72.3325 71.2195 72.3525L78.9521 73.1621C79.0848 73.1621 79.1844 73.312 79.2508 73.6118C79.3393 73.9316 79.3393 74.0815 79.2508 74.0615L71.1863 73.4919Z" fill="#0D131A"/>
<path d="M70.6553 54.7526C70.5005 54.7526 70.3677 54.5627 70.2571 54.183C70.1243 53.8032 70.1243 53.6133 70.2571 53.6133L73.8745 54.0031L78.3879 54.6027C78.6313 54.6627 78.7419 54.8626 78.7198 55.2024C78.6977 55.5422 78.5649 55.6821 78.3216 55.6221L70.6553 54.7526Z" fill="#0D131A"/>
<path d="M43.0768 56.1917C39.8909 56.0918 37.0257 57.1912 34.4814 59.4899C31.9813 61.7286 30.7091 64.2571 30.6649 67.0755C30.5985 70.1937 31.583 72.8622 33.6185 75.0809C35.7867 77.4196 38.6629 78.7388 42.2472 79.0387C45.1676 79.2585 47.8668 78.379 50.3448 76.4002C52.9777 74.2814 54.3494 71.6229 54.46 68.4247C54.5928 65.0467 53.6082 62.1983 51.5064 59.8796C49.3381 57.521 46.5283 56.2917 43.0768 56.1917ZM33.3198 58.8602C36.0633 56.3217 39.3267 55.1124 43.11 55.2323C46.8934 55.3522 50.0129 56.6815 52.4688 59.22C54.9246 61.7586 56.0862 64.8368 55.9534 68.4547C55.8428 71.7728 54.3273 74.6112 51.4068 76.9699C48.5748 79.2286 45.4995 80.228 42.1808 79.9681C38.0877 79.6483 34.8575 78.1892 32.4901 75.5906C30.3219 73.232 29.2599 70.4236 29.3042 67.1655C29.3706 64.0473 30.7091 61.2788 33.3198 58.8602Z" fill="#0D131A"/>
<path d="M41.9485 65.4265C41.9263 65.2866 41.9595 65.1367 42.048 64.9768C42.1365 64.7969 42.2803 64.6969 42.4795 64.6769L43.0768 64.8568L43.3423 65.3965C43.3645 65.9362 43.1432 66.2061 42.6786 66.2061C42.4573 66.2261 42.2803 66.1561 42.1476 65.9962C42.0148 65.8563 41.9485 65.6664 41.9485 65.4265Z" fill="#0D131A"/>
<path d="M105.203 63.6275C105.137 63.5076 105.358 63.6175 105.867 63.9573L106.73 64.7369C110.845 75.6906 110.767 87.3939 106.497 99.8468C104.75 104.964 102.471 109.541 99.6609 113.579C96.9617 117.437 94.2293 120.185 91.4637 121.824L88.7755 122.214C92.0278 120.635 95.1364 117.707 98.1011 113.429C101.066 109.211 103.444 104.294 105.236 98.6774C107.139 92.7608 108.146 86.8842 108.256 81.0475C108.345 74.6112 107.327 68.8045 105.203 63.6275Z" fill="#0D131A"/>
<path d="M28.6737 80.9276C29.9569 81.3074 31.7711 82.6766 34.1164 85.0353C36.7271 87.6538 38.5524 90.1723 39.5922 92.591C41.3401 96.7486 41.9596 103.085 41.4507 111.6C41.1631 116.497 41.0193 119.885 41.0193 121.764C41.0414 125.662 41.4396 129.14 42.214 132.198C45.1345 143.792 50.4555 152.926 58.177 159.603C62.7789 163.6 68.0225 166.529 73.9077 168.388C75.2794 168.827 76.0649 169.277 76.264 169.737C76.4852 170.217 75.9432 170.456 74.6378 170.456C71.7616 170.456 68.5978 169.697 65.1463 168.178C61.3851 166.559 57.8009 164.25 54.3937 161.252C46.0526 153.976 40.4108 144.431 37.4682 132.618C36.362 128.161 36.0301 122.184 36.4726 114.688C36.9594 106.833 36.9151 101.456 36.3399 98.5575C35.7204 95.4193 34.2049 92.501 31.7933 89.8026C30.2666 88.1235 28.552 86.6743 26.6493 85.455C25.4988 84.7155 25.2333 83.6761 25.8528 82.3368C26.4944 81.0176 27.4347 80.5478 28.6737 80.9276Z" fill="#0B0B0C"/>
<path d="M108.721 81.2874L91.5632 80.7477L71.8169 79.4285C71.1753 79.4685 70.246 79.6983 69.0292 80.1181C66.5954 80.9576 63.9515 82.3168 61.0974 84.1958C57.3362 86.6943 54.9136 88.4533 53.8295 89.4727C52.3914 90.832 51.6281 92.2711 51.5396 93.7903L47.1257 93.3105L47.1589 90.792C47.2474 89.033 47.4686 87.9436 47.8226 87.5239C48.42 86.8442 51.4179 84.8054 56.8163 81.4074C62.4802 77.8094 65.8985 75.9605 67.0711 75.8605L110.812 78.3191L113.533 78.559C114.352 78.7189 114.761 79.0087 114.761 79.4285C114.761 79.8482 113.92 80.258 112.239 80.6578L108.721 81.2874Z" fill="#A3B1B4"/>
<path d="M51.6059 91.9613C52.3803 90.5021 55.1238 88.1835 59.8363 85.0053C64.9693 81.5473 68.8411 79.7183 71.4518 79.5184L82.5031 80.268L106.697 81.3474C105.281 81.8271 103.378 82.6866 100.988 83.9259C97.4263 85.7848 94.2514 87.8637 91.4637 90.1623C82.9456 97.1383 79.3504 104.854 80.6778 113.309C80.9433 115.048 80.9433 115.978 80.6778 116.097C80.523 116.157 79.8814 115.818 78.753 115.078C60.9868 103.105 51.9378 96.7486 51.6059 96.009C51.3847 95.5293 51.3183 94.7097 51.4068 93.5504L51.6059 91.9613Z" fill="white"/>
<path d="M51.6059 96.0989C51.3183 95.6991 51.1966 94.9796 51.2408 93.9401C51.2851 92.8208 51.5506 92.0212 52.0373 91.5415C55.7322 87.7837 59.7589 84.6954 64.1174 82.2768C67.7016 80.278 70.2239 79.3185 71.6841 79.3985L87.1161 80.6877L105.8 81.4073L100.623 83.6261C89.9591 83.3062 80.4566 83.9359 72.1155 85.515C68.3322 86.2146 64.5931 87.6937 60.8983 89.9524C55.9645 92.9507 54.3715 96.009 56.1193 99.1272C53.4644 97.5881 51.9599 96.5786 51.6059 96.0989Z" fill="#DBDCDC"/>
<path d="M33.7181 85.2451C31.4393 82.9664 29.7135 81.6572 28.5409 81.3174C27.5232 81.0176 26.7599 81.4273 26.251 82.5467C25.7421 83.666 25.9634 84.5256 26.9148 85.1252C28.9281 86.4045 30.7092 87.9136 32.2579 89.6526C34.6474 92.3711 36.1518 95.3194 36.7713 98.4976C37.1696 100.516 37.3687 102.865 37.3687 105.544L37.0368 113.039C36.7713 117.217 36.6607 120.405 36.705 122.604C36.7713 126.242 37.1696 129.55 37.8997 132.528C40.8202 144.241 46.3624 153.696 54.5264 160.892C57.8894 163.87 61.4293 166.169 65.1463 167.788C68.5756 169.307 71.7395 170.067 74.6378 170.067C75.3679 170.067 75.6445 169.927 75.4675 169.647C75.3126 169.387 74.7484 169.097 73.7749 168.777C67.1818 166.679 61.363 163.32 56.3185 158.703C48.951 151.967 44.0504 143.162 41.6166 132.288C40.7095 128.271 40.3666 123.373 40.5878 117.597C41.0303 111.56 41.2516 107.362 41.2516 105.004C41.2516 100.167 40.5547 96.0789 39.1608 92.7408C38.1431 90.3222 36.3288 87.8237 33.7181 85.2451ZM28.6737 80.268C30.156 80.7077 32.1362 82.0969 34.6142 84.4356C37.4904 87.1341 39.4374 89.8125 40.4551 92.471C41.8268 96.0889 42.5348 99.547 42.5791 102.845L41.9485 112.949C41.7051 117.187 41.6056 120.355 41.6498 122.454C41.6941 126.032 42.0813 129.25 42.8114 132.108C45.5106 142.862 50.4887 151.567 57.7456 158.223C62.4803 162.581 67.923 165.849 74.0736 168.028C75.5339 168.547 76.3304 169.167 76.4631 169.887C76.618 170.626 76.0096 170.996 74.6378 170.996C71.6952 170.996 68.4982 170.296 65.0467 168.897C61.197 167.338 57.5354 165.109 54.0618 162.211C45.4995 155.035 39.6697 145.241 36.5722 132.828C35.8421 129.87 35.477 126.502 35.477 122.724L35.9748 112.979C36.174 109.941 36.2625 107.472 36.2403 105.574C36.1961 102.975 35.9748 100.656 35.5766 98.6175C35.0456 95.959 33.8619 93.4604 32.0256 91.1218C30.4547 89.1229 28.5852 87.4339 26.417 86.0547C25.0452 85.1952 24.7244 83.9059 25.4545 82.1869C26.1846 80.4879 27.2577 79.8482 28.6737 80.268Z" fill="#0D131A"/>
<path d="M52.7343 91.3017C52.1812 92.0212 51.9046 93.0007 51.9046 94.24C51.9046 95.2794 52.0705 95.919 52.4024 96.1589L56.5176 98.9773C67.5578 106.473 75.1024 111.74 79.1512 114.778C79.9035 115.338 80.3238 115.538 80.4123 115.378L80.1468 113.789C78.5317 106.493 81.0207 99.467 87.6139 92.7108C92.6141 87.6138 98.2227 83.9359 104.44 81.6772L85.5563 81.0175L72.3479 79.9981C69.9363 79.7183 66.0644 81.3873 60.7324 85.0053C56.3517 87.9636 53.6856 90.0624 52.7343 91.3017ZM110.646 77.8094C113.832 77.9493 115.48 78.429 115.591 79.2485C115.679 80.0481 114.263 80.7177 111.343 81.2574L107.062 81.7671C99.7825 84.3256 93.5765 88.3933 88.4436 93.9701C82.315 100.626 80.003 107.502 81.5075 114.598C81.7509 115.698 81.6734 116.357 81.2752 116.577C80.8327 116.817 79.9366 116.477 78.587 115.558L51.8714 97.0883C51.274 96.6686 50.9311 95.7491 50.8426 94.3299C50.7541 92.8508 51.0417 91.6814 51.7055 90.8219C53.1436 88.983 56.2632 86.5144 61.0642 83.4162C66.4848 79.9581 70.3013 78.419 72.5138 78.7988C75.1245 79.2386 81.2088 79.7183 90.7667 80.238C101.564 80.8376 108.367 80.8676 111.177 80.3279C113.301 79.9282 114.318 79.5684 114.23 79.2485C114.141 78.9087 112.936 78.7388 110.613 78.7388L85.6227 77.2997L66.7724 76.4002C65.2901 76.8 61.905 78.6989 56.6172 82.0969C51.5948 85.3151 48.8735 87.194 48.4531 87.7337C48.1876 88.0935 48.0106 88.6732 47.9221 89.4727L47.6566 92.0212C47.5018 93.1606 47.2805 93.6203 46.9929 93.4005C46.7274 93.2006 46.6389 92.481 46.7274 91.2417L46.9265 88.7231C46.9929 87.7637 47.1146 87.184 47.2916 86.9841C47.6677 86.5044 50.4775 84.5955 55.7211 81.2574C61.3408 77.6395 64.9361 75.6206 66.5069 75.2009L80.7774 75.7705L110.646 77.8094Z" fill="#0D131A"/>
<path d="M51.4732 95.3794C51.3626 95.3594 51.3183 95.2194 51.3404 94.9596C51.3847 94.6997 51.4621 94.5698 51.5727 94.5698C55.6216 94.9296 59.239 95.5193 62.4249 96.3388C65.987 97.2383 69.538 98.5376 73.078 100.237C74.5161 100.916 75.2351 101.386 75.2351 101.646C75.2351 101.906 74.5272 101.746 73.1112 101.166C69.3278 99.567 65.633 98.3177 62.0267 97.4182C59.239 96.6986 55.7211 96.019 51.4732 95.3794Z" fill="#0D131A"/>
<path d="M51.5064 93.6403C51.3957 93.7003 51.3404 93.5804 51.3404 93.2805C51.3183 92.9807 51.3626 92.8008 51.4732 92.7408C56.1415 90.0624 62.1705 88.1235 69.5602 86.9242C77.5251 85.6449 86.6404 85.2951 96.9063 85.8748C97.0391 85.8748 96.9174 85.9947 96.5413 86.2346L95.778 86.5644C85.7112 86.3245 76.9056 86.8142 69.361 88.0335C61.905 89.2329 55.9534 91.1018 51.5064 93.6403Z" fill="#0D131A"/>
</g>
<defs>
<clipPath id="clip0_132_92">
<rect width="174" height="171" fill="white"/>
</clipPath>
</defs>
</svg>
