<svg width="80" height="82" viewBox="0 0 80 82" fill="none" xmlns="http://www.w3.org/2000/svg">
<g clip-path="url(#clip0_77_102)">
<path d="M69.9176 8.3746C70.8157 8.3746 71.5438 9.12313 71.5438 10.0438C71.5438 10.9644 70.8157 11.7129 69.9176 11.7129C69.022 11.7129 68.2939 10.9644 68.2939 10.0438C68.2939 9.12313 69.022 8.3746 69.9176 8.3746Z" fill="#BCE6EC"/>
<path d="M16.1822 25.793V32.2921C16.1822 32.5953 15.9431 32.8412 15.6481 32.8412C15.3531 32.8412 15.1113 32.5953 15.1113 32.2921V25.793C15.1113 25.4897 15.3531 25.2439 15.6481 25.2439C15.9431 25.2439 16.1822 25.4897 16.1822 25.793Z" fill="#BCE6EC"/>
<path d="M22.5037 22.5448C22.5037 23.4627 22.501 24.5008 21.4089 25.2602C21.1458 22.2279 18.6612 19.8457 15.6478 19.8457C12.6318 19.8457 10.1499 22.2279 9.88415 25.2602C8.79199 24.5008 8.79199 23.4627 8.79199 22.5448C8.79199 20.1926 9.8124 16.5347 11.2713 13.6498C13.0091 10.2159 14.7151 8.99747 15.6478 8.99747C16.5779 8.99747 18.2839 10.2159 20.0218 13.6498C21.4833 16.5347 22.5037 20.1926 22.5037 22.5448Z" fill="#BCE6EC"/>
<path d="M67.2926 30.6994V76.0647H47.0439V30.6994C47.0439 24.9597 51.5853 20.291 57.1683 20.291C62.7513 20.291 67.2926 24.9597 67.2926 30.6994Z" fill="#00C08D"/>
<path d="M69.9179 2.97371C73.7099 2.97371 76.795 6.1454 76.795 10.0438C76.795 13.9421 73.7099 17.1111 69.9179 17.1111C67.0587 17.1111 64.598 15.3053 63.5643 12.7429H59.7936V15.1278C67.0241 16.4117 72.546 22.9026 72.546 30.6994V78.7638C72.546 80.2554 71.3688 81.4628 69.9179 81.4628H44.4184C42.9675 81.4628 41.793 80.2554 41.793 78.7638V30.6994C41.793 22.9026 47.3122 16.4117 54.5427 15.1278V12.7429H43.1509C40.6105 12.7429 38.5431 14.8682 38.5431 17.4799V59.4085C38.5431 64.9979 34.1187 69.5465 28.6845 69.5465H22.4451C17.0083 69.5465 12.5865 64.9979 12.5865 59.4085V37.3351C10.9496 36.2833 9.8601 34.4174 9.8601 32.2921V31.0709C9.06025 30.8387 8.34277 30.5464 7.69705 30.1885C5.79973 29.1368 3.54102 26.9567 3.54102 22.5448C3.54102 19.313 4.74743 14.8437 6.61286 11.1556C9.0815 6.28473 12.2889 3.59931 15.6477 3.59931C23.1812 3.59931 27.7544 16.7587 27.7544 22.5448C27.7544 26.9567 25.493 29.1368 23.5984 30.1885C22.9527 30.5464 22.2352 30.8387 21.4327 31.0709V32.2921C21.4327 34.7753 19.9446 36.9062 17.8373 37.7968V59.4085C17.8373 62.0229 19.9047 64.1483 22.4451 64.1483H28.6845C31.2249 64.1483 33.2922 62.0229 33.2922 59.4085V17.4799C33.2922 11.8905 37.714 7.34469 43.1509 7.34469H54.5427V3.02562C54.5427 1.53402 55.7173 0.326538 57.1682 0.326538C58.6191 0.326538 59.7936 1.53402 59.7936 3.02562V7.34469H63.5643C64.598 4.78221 67.0587 2.97371 69.9179 2.97371ZM71.5442 10.0438C71.5442 9.12313 70.8161 8.3746 69.9179 8.3746C69.0224 8.3746 68.2943 9.12313 68.2943 10.0438C68.2943 10.9644 69.0224 11.7129 69.9179 11.7129C70.8161 11.7129 71.5442 10.9644 71.5442 10.0438ZM67.2925 76.0647V30.6994C67.2925 24.9597 62.7512 20.291 57.1682 20.291C51.5852 20.291 47.0438 24.9597 47.0438 30.6994V76.0647H67.2925ZM21.4088 25.2602C22.5009 24.5008 22.5036 23.4627 22.5036 22.5448C22.5036 20.1926 21.4832 16.5347 20.0216 13.6498C18.2838 10.2159 16.5778 8.99747 15.6477 8.99747C14.715 8.99747 13.009 10.2159 11.2711 13.6498C9.81226 16.5347 8.79186 20.1926 8.79186 22.5448C8.79186 23.4627 8.79186 24.5008 9.88401 25.2602C10.1497 22.2279 12.6317 19.8457 15.6477 19.8457C18.6611 19.8457 21.1457 22.2279 21.4088 25.2602ZM16.1818 32.2921V25.793C16.1818 25.4897 15.9427 25.2439 15.6477 25.2439C15.3528 25.2439 15.1109 25.4897 15.1109 25.793V32.2921C15.1109 32.5953 15.3528 32.8412 15.6477 32.8412C15.9427 32.8412 16.1818 32.5953 16.1818 32.2921Z" fill="black"/>
</g>
<defs>
<clipPath id="clip0_77_102">
<rect width="79.0549" height="81.2729" fill="white" transform="translate(0.640625 0.25824)"/>
</clipPath>
</defs>
</svg>
