<svg width="102" height="85" viewBox="0 0 102 85" fill="none" xmlns="http://www.w3.org/2000/svg">
<g clip-path="url(#clip0_92_43)">
<path d="M57.0107 68.7242H45.0984C44.2172 68.7242 43.5029 69.3167 43.5029 70.0477V83.4586C43.5029 84.1895 44.217 84.7821 45.0984 84.7821H57.0107C57.8919 84.7821 58.6062 84.1896 58.6062 83.4586V70.0477C58.6062 69.3167 57.8919 68.7242 57.0107 68.7242Z" fill="#439EE8"/>
<path d="M58.6062 73.5768V70.0476C58.6062 69.3168 57.8919 68.7241 57.0107 68.7241H48.9273H45.0984C44.2174 68.7241 43.5029 69.3166 43.5029 70.0476V73.5768V83.4585C43.5029 84.1893 44.2172 84.782 45.0984 84.782H48.9273C48.0461 84.782 47.3319 84.1895 47.3319 83.4585V74.1944C47.3319 73.8533 47.6652 73.5768 48.0764 73.5768H58.6062Z" fill="#5293C4"/>
<path d="M75.7309 0.258179H26.3796C25.4986 0.258179 24.7842 0.850671 24.7842 1.58167V38.9912C24.7842 39.384 24.9945 39.7564 25.3581 40.0078L39.7175 49.9339C39.9601 50.1015 40.1002 50.3498 40.1002 50.6118V70.0478C40.1002 70.7786 40.8144 71.3713 41.6956 71.3713H60.4151C61.2961 71.3713 62.0106 70.7788 62.0106 70.0478V50.6116C62.0106 50.3498 62.1507 50.1015 62.3933 49.9337L76.7526 40.0076C77.1164 39.7562 77.3266 39.3838 77.3266 38.9911V1.58167C77.3262 0.850671 76.6119 0.258179 75.7309 0.258179Z" fill="#5CC4E0"/>
<path d="M44.1419 70.0476V50.6116C44.1419 50.3498 44.0018 50.1015 43.7592 49.9337L29.3998 40.0077C29.036 39.7562 28.8259 39.3836 28.8259 38.9909V1.58167C28.8259 0.850836 29.5399 0.258179 30.4213 0.258179H26.3796C25.4986 0.258179 24.7842 0.850671 24.7842 1.58167V38.9909C24.7842 39.3836 24.9943 39.7562 25.3581 40.0077L39.7175 49.9337C39.9601 50.1013 40.1002 50.3496 40.1002 50.6116V70.0476C40.1002 70.7784 40.8144 71.3711 41.6956 71.3711H45.7373C44.8559 71.3711 44.1419 70.7786 44.1419 70.0476Z" fill="#439EE8"/>
<path d="M51.6929 5.7284H50.2039C49.3226 5.7284 48.6084 5.13591 48.6084 4.40491C48.6084 3.67391 49.3224 3.08142 50.2039 3.08142H51.6929C52.5741 3.08142 53.2883 3.67391 53.2883 4.40491C53.2883 5.13591 52.5741 5.7284 51.6929 5.7284Z" fill="#BEE7F3"/>
<path d="M59.1382 5.7284H57.6492C56.768 5.7284 56.0537 5.13591 56.0537 4.40491C56.0537 3.67391 56.7678 3.08142 57.6492 3.08142H59.1382C60.0194 3.08142 60.7336 3.67391 60.7336 4.40491C60.7336 5.13591 60.0194 5.7284 59.1382 5.7284Z" fill="#BEE7F3"/>
<path d="M66.5835 5.7284H65.0945C64.2133 5.7284 63.499 5.13591 63.499 4.40491C63.499 3.67391 64.2131 3.08142 65.0945 3.08142H66.5835C67.4647 3.08142 68.1789 3.67391 68.1789 4.40491C68.1789 5.13591 67.4649 5.7284 66.5835 5.7284Z" fill="#BEE7F3"/>
<path d="M44.4604 5.7284H42.9714C42.0902 5.7284 41.376 5.13591 41.376 4.40491C41.376 3.67391 42.09 3.08142 42.9714 3.08142H44.4604C45.3416 3.08142 46.0559 3.67391 46.0559 4.40491C46.0559 5.13591 45.3418 5.7284 44.4604 5.7284Z" fill="#BEE7F3"/>
<path d="M37.0151 5.7284H35.5261C34.6449 5.7284 33.9307 5.13591 33.9307 4.40491C33.9307 3.67391 34.6447 3.08142 35.5261 3.08142H37.0151C37.8963 3.08142 38.6106 3.67391 38.6106 4.40491C38.6106 5.13591 37.8963 5.7284 37.0151 5.7284Z" fill="#BEE7F3"/>
<path d="M68.9233 7.31653H33.1863C32.3051 7.31653 31.5908 7.90902 31.5908 8.64002V33.3443C31.5908 34.0751 32.3049 34.6677 33.1863 34.6677H68.9233C69.8045 34.6677 70.5187 34.0753 70.5187 33.3443V8.63985C70.5187 7.90902 69.8045 7.31653 68.9233 7.31653Z" fill="#5293C4"/>
<path d="M34.7822 31.4032V10.581C34.7822 10.2399 35.1156 9.96338 35.5267 9.96338H66.5838C66.9949 9.96338 67.3283 10.2399 67.3283 10.581V31.4032C67.3283 31.7443 66.9949 32.0208 66.5838 32.0208H35.5267C35.1156 32.0208 34.7822 31.7443 34.7822 31.4032Z" fill="#E0DDDF"/>
<path d="M36.8031 30.8737H65.0949C65.5061 30.8737 65.8394 30.5972 65.8394 30.2562V11.7279C65.8394 11.3869 65.5061 11.1104 65.0949 11.1104H36.8031C36.3919 11.1104 36.0586 11.3869 36.0586 11.7279V30.2562C36.0586 30.5972 36.3919 30.8737 36.8031 30.8737Z" fill="#F9F8F9"/>
<path d="M47.6512 12.9631H39.1423C38.2611 12.9631 37.5469 13.5556 37.5469 14.2866V27.6975C37.5469 28.4284 38.2609 29.021 39.1423 29.021C40.0238 29.021 40.7378 28.4285 40.7378 27.6975V21.9626H47.6512C48.5324 21.9626 49.2467 21.3701 49.2467 20.6391V14.2866C49.2465 13.5558 48.5324 12.9631 47.6512 12.9631ZM46.0557 19.3158H40.7378V15.6101H46.0557V19.3158Z" fill="#FF675C"/>
<path d="M62.9672 12.9631C62.086 12.9631 61.3717 13.5556 61.3717 14.2866V19.3156H54.3521V14.2866C54.3521 13.5558 53.638 12.9631 52.7566 12.9631C51.8752 12.9631 51.1611 13.5556 51.1611 14.2866V27.6975C51.1611 28.4284 51.8752 29.021 52.7566 29.021C53.638 29.021 54.3521 28.4285 54.3521 27.6975V21.9626H61.3717V27.6975C61.3717 28.4284 62.0858 29.021 62.9672 29.021C63.8484 29.021 64.5627 28.4285 64.5627 27.6975V14.2866C64.5627 13.5558 63.8484 12.9631 62.9672 12.9631Z" fill="#FF675C"/>
<path d="M42.9713 36.8733C39.9802 36.8733 37.5469 38.892 37.5469 41.373C37.5469 43.8543 39.9802 45.8728 42.9713 45.8728C45.9624 45.8728 48.3957 43.8543 48.3957 41.373C48.3957 38.8921 45.9624 36.8733 42.9713 36.8733Z" fill="#F78B4F"/>
<path d="M42.9713 38.2851C45.0241 38.2851 46.694 39.6703 46.694 41.3732C46.694 43.0761 45.0241 44.4613 42.9713 44.4613C40.9185 44.4613 39.2486 43.0761 39.2486 41.3732C39.2486 39.6702 40.9185 38.2851 42.9713 38.2851ZM42.9713 36.8733C39.9802 36.8733 37.5469 38.892 37.5469 41.373C37.5469 43.8543 39.9802 45.8728 42.9713 45.8728C45.9624 45.8728 48.3957 43.8543 48.3957 41.373C48.3957 38.8921 45.9624 36.8733 42.9713 36.8733Z" fill="#FBEFA5"/>
<path d="M59.1383 36.8733C56.1474 36.8733 53.7139 38.892 53.7139 41.373C53.7139 43.8543 56.1474 45.8728 59.1383 45.8728C62.1292 45.8728 64.5627 43.8543 64.5627 41.373C64.5627 38.8921 62.1292 36.8733 59.1383 36.8733Z" fill="#F78B4F"/>
<path d="M59.1383 38.2851C61.1911 38.2851 62.861 39.6703 62.861 41.3732C62.861 43.0761 61.1911 44.4613 59.1383 44.4613C57.0855 44.4613 55.4156 43.0761 55.4156 41.3732C55.4156 39.6702 57.0855 38.2851 59.1383 38.2851ZM59.1383 36.8733C56.1472 36.8733 53.7139 38.892 53.7139 41.373C53.7139 43.8543 56.1472 45.8728 59.1383 45.8728C62.1294 45.8728 64.5627 43.8543 64.5627 41.373C64.5627 38.8921 62.1294 36.8733 59.1383 36.8733Z" fill="#FBEFA5"/>
</g>
<defs>
<clipPath id="clip0_92_43">
<rect width="101.893" height="84.5238" fill="white" transform="translate(0.108398 0.258179)"/>
</clipPath>
</defs>
</svg>
