<svg width="36" height="58" viewBox="0 0 36 58" fill="none" xmlns="http://www.w3.org/2000/svg">
<path fill-rule="evenodd" clip-rule="evenodd" d="M21.3421 6.79258C21.3421 5.60742 20.7143 4.52899 19.7005 3.74741C18.6882 2.96582 17.2929 2.47997 15.7578 2.47997C14.2228 2.47997 12.8275 2.96582 11.8137 3.74741C10.8014 4.52899 10.1736 5.60742 10.1736 6.79258V36.9719C6.30438 38.504 3.65769 41.6136 3.65769 45.2013C3.65769 50.3066 9.0173 54.4447 15.6297 54.4447C22.2406 54.4447 27.6003 50.3066 27.6003 45.2013C27.6003 41.6937 25.0702 38.6429 21.3421 37.0764V6.79258ZM27.2215 10.7883V8.78712H33.975C34.3188 8.78712 34.6484 8.89254 34.8914 9.08019C35.1345 9.26784 35.271 9.52234 35.271 9.78772C35.271 10.0531 35.1345 10.3076 34.8914 10.4953C34.6484 10.6829 34.3188 10.7883 33.975 10.7883H27.2215ZM27.2215 16.2516V14.2504H33.975C34.3188 14.2504 34.6484 14.3558 34.8914 14.5435C35.1345 14.7311 35.271 14.9856 35.271 15.251C35.271 15.5164 35.1345 15.7709 34.8914 15.9586C34.6484 16.1462 34.3188 16.2516 33.975 16.2516H27.2215ZM27.2215 21.7149V19.7137H33.975C34.3188 19.7137 34.6484 19.8191 34.8914 20.0068C35.1345 20.1944 35.271 20.4489 35.271 20.7143C35.271 20.9797 35.1345 21.2342 34.8914 21.4219C34.6484 21.6095 34.3188 21.7149 33.975 21.7149H27.2215ZM27.2215 27.1782V25.177H33.975C34.3188 25.177 34.6484 25.2824 34.8914 25.4701C35.1345 25.6577 35.271 25.9122 35.271 26.1776C35.271 26.443 35.1345 26.6975 34.8914 26.8852C34.6484 27.0728 34.3188 27.1782 33.975 27.1782H27.2215ZM27.2215 32.6415V30.6403H33.975C34.3188 30.6403 34.6484 30.7457 34.8914 30.9334C35.1345 31.121 35.271 31.3755 35.271 31.6409C35.271 31.9063 35.1345 32.1608 34.8914 32.3485C34.6484 32.5361 34.3188 32.6415 33.975 32.6415H27.2215ZM24.2019 35.2364C28.3735 37.3799 31.1224 41.0422 31.1224 45.2013C31.1224 51.8075 24.1861 57.163 15.6297 57.163C7.07189 57.163 0.135498 51.8075 0.135498 45.2013C0.135498 40.9577 2.99818 37.231 7.31236 35.1075V6.79258C7.31236 4.99816 8.26275 3.36718 9.79201 2.18646C11.3227 1.00464 13.4337 0.271973 15.7578 0.271973C18.0805 0.271973 20.193 1.00464 21.7237 2.18646C23.2529 3.36718 24.2019 4.99816 24.2019 6.79258V35.2364Z" fill="#2B2727"/>
<path fill-rule="evenodd" clip-rule="evenodd" d="M18.0661 38.6674C21.7439 39.4834 24.4337 42.0994 24.4337 45.2013C24.4337 48.9558 20.4925 51.9987 15.6297 51.9987C10.7669 51.9987 6.82422 48.9558 6.82422 45.2013C6.82422 42.1005 9.51554 39.4834 13.1918 38.6674V7.96769C13.1918 5.62962 18.0661 5.72189 18.0661 7.96769V38.6674Z" fill="#EF1C25"/>
</svg>
