<svg width="25" height="25" viewBox="0 0 40 40" fill="none" xmlns="http://www.w3.org/2000/svg">
<path d="M25.3333 18.6667C26.0666 18.6667 26.6666 18.0667 26.6666 17.3333C26.6666 16.6 26.0666 16 25.3333 16C24.6 16 24 16.6 24 17.3333C24 18.0667 24.6 18.6667 25.3333 18.6667ZM12.7066 9.01333L9.18664 2.06667C8.73331 1.17333 7.26664 1.17333 6.79998 2.06667L3.29331 9.01333C2.15998 11.2667 2.58664 14.0667 4.35998 15.8133C5.38664 16.8267 6.69331 17.3333 7.99998 17.3333C9.30664 17.3333 10.6133 16.8267 11.64 15.8133C13.4 14.0667 13.84 11.2667 12.7066 9.01333ZM9.33331 13.3333C9.86664 13.3333 10.3333 13.0133 10.5333 12.5467C10.4 13.0667 10.1333 13.5333 9.75998 13.9067C8.75998 14.9067 7.23997 14.9067 6.22664 13.9067C5.29331 12.9733 5.05331 11.4267 5.66664 10.2L7.99998 5.62667L10.32 10.2267C10.5866 10.7467 10.68 11.3333 10.64 11.9067C10.5866 11.2133 10.04 10.6667 9.33331 10.6667C8.59998 10.6667 7.99998 11.2667 7.99998 12C7.99998 12.7333 8.59998 13.3333 9.33331 13.3333ZM18 24C16.8933 24 16 24.8933 16 26C16 27.1067 16.8933 28 18 28C19.1066 28 20 27.1067 20 26C20 24.8933 19.1066 24 18 24ZM25.3333 25.3333C23.12 25.3333 21.3333 27.12 21.3333 29.3333C21.3333 31.5467 23.12 33.3333 25.3333 33.3333C27.5466 33.3333 29.3333 31.5467 29.3333 29.3333C29.3333 27.12 27.5466 25.3333 25.3333 25.3333ZM34.1466 15.6667L25.04 4.49333C24.5333 3.86667 23.48 3.86667 22.9733 4.49333L13.8666 15.6667C9.58664 20.9067 9.58664 28.5333 13.8666 33.7733C16.3866 36.88 20.0933 38.6667 24 38.6667C27.9066 38.6667 31.6133 36.88 34.1466 33.7733C38.4266 28.52 38.4266 20.9067 34.1466 15.6667ZM32.08 32.08C30.0533 34.5733 27.1066 36 24 36C20.8933 36 17.9466 34.5733 15.92 32.08C12.4933 27.88 12.4933 21.5467 15.92 17.3467L24 7.44L32.08 17.3467C35.5066 21.5467 35.5066 27.88 32.08 32.08Z" fill="white"/>
</svg>
